<?xml version="1.0" encoding="UTF-8" standalone="no"?>
<!-- Created with Inkscape (http://www.inkscape.org/) -->

<svg
   xmlns:dc="http://purl.org/dc/elements/1.1/"
   xmlns:cc="http://creativecommons.org/ns#"
   xmlns:rdf="http://www.w3.org/1999/02/22-rdf-syntax-ns#"
   xmlns:svg="http://www.w3.org/2000/svg"
   xmlns="http://www.w3.org/2000/svg"
   xmlns:sodipodi="http://sodipodi.sourceforge.net/DTD/sodipodi-0.dtd"
   xmlns:inkscape="http://www.inkscape.org/namespaces/inkscape"
   id="svg2"
   version="1.1"
   inkscape:version="0.48.3.1 r9886"
   width="950"
   height="170"
   xml:space="preserve"
   sodipodi:docname="160404_Pagehead-Wasted.svg"><metadata
   id="metadata8"><rdf:RDF><cc:Work
       rdf:about=""><dc:format>image/svg+xml</dc:format><dc:type
         rdf:resource="http://purl.org/dc/dcmitype/StillImage" /><dc:title></dc:title></cc:Work></rdf:RDF></metadata><defs
   id="defs6" /><sodipodi:namedview
   pagecolor="#f0f0f0"
   bordercolor="#666666"
   borderopacity="1"
   objecttolerance="10"
   gridtolerance="10"
   guidetolerance="10"
   inkscape:pageopacity="1"
   inkscape:pageshadow="2"
   inkscape:window-width="640"
   inkscape:window-height="480"
   id="namedview4"
   showgrid="false"
   inkscape:zoom="1"
   inkscape:cx="342.42162"
   inkscape:cy="47.955244"
   inkscape:current-layer="svg2"
   showguides="false"
   inkscape:guide-bbox="true"><sodipodi:guide
     position="10.629921,10.629921"
     orientation="0,1488.189"
     id="guide3241" /><sodipodi:guide
     position="1498.8189,10.629921"
     orientation="-2104.7244,0"
     id="guide3243" /><sodipodi:guide
     position="1498.8189,2115.3543"
     orientation="0,-1488.189"
     id="guide3245" /><sodipodi:guide
     position="10.629921,2115.3543"
     orientation="2104.7244,0"
     id="guide3247" /><sodipodi:guide
     position="10.629921,10.629921"
     orientation="1.0480505e-13,6.2172489e-14"
     id="guide3249" /></sodipodi:namedview>
<g
   inkscape:groupmode="layer"
   id="layer1"
   inkscape:label="XX_REF-HEADER"><path
     style="color:#000000;fill:#000000;fill-opacity:1;stroke:none;stroke-width:4;marker:none;visibility:visible;display:inline;overflow:visible;enable-background:accumulate"
     d="m 0,-0.0125 950,0 0,170 -950,0 z"
     id="rect4696"
     inkscape:connector-curvature="0" /></g><g
   inkscape:groupmode="layer"
   id="g6323"
   inkscape:label="TYPO"
   style="display:inline">











































<text
   xml:space="preserve"
   style="font-size:80.43771362px;font-style:normal;font-variant:normal;font-weight:800;font-stretch:normal;text-align:start;line-height:140.99999666%;letter-spacing:0px;word-spacing:0px;writing-mode:lr-tb;text-anchor:start;fill:#ff0000;fill-opacity:1;stroke:none;display:inline;font-family:Crickx;-inkscape-font-specification:Crickx Ultra-Bold"
   x="545.21844"
   y="93.27951"
   id="text5252"
   sodipodi:linespacing="141%"
   transform="scale(0.99913196,1.0008688)"><tspan
     sodipodi:role="line"
     id="tspan5254"
     x="545.21844"
     y="93.27951">W<tspan
   id="tspan5256"
   style="font-size:80.43771362px;font-style:normal;font-variant:normal;font-weight:800;font-stretch:normal;text-align:start;line-height:140.99999666%;writing-mode:lr-tb;text-anchor:start;fill:#ff0000;font-family:Crickx;-inkscape-font-specification:Crickx Ultra-Bold">A</tspan>STE(<tspan
   style="font-size:80.43771362px;font-style:normal;font-variant:normal;font-weight:800;font-stretch:normal;text-align:start;line-height:140.99999666%;writing-mode:lr-tb;text-anchor:start;fill:#ff0000;font-family:Crickx;-inkscape-font-specification:Crickx Ultra-Bold"
   id="tspan5258">D</tspan>)!</tspan></text>
<text
   xml:space="preserve"
   style="font-size:16.74635124px;font-style:normal;font-variant:normal;font-weight:800;font-stretch:normal;text-align:start;line-height:140.99999666%;letter-spacing:0px;word-spacing:0px;writing-mode:lr-tb;text-anchor:start;fill:#ff0000;fill-opacity:1;stroke:none;display:inline;font-family:Crickx;-inkscape-font-specification:Crickx Ultra-Bold"
   x="523.92566"
   y="136.0304"
   id="text5260"
   sodipodi:linespacing="141%"><tspan
     sodipodi:role="line"
     x="523.92566"
     y="136.0304"
     id="tspan5262">festival dedicated to art, hacktivism and open culture</tspan></text>
<text
   sodipodi:linespacing="141%"
   id="text5264"
   y="121.05878"
   x="517.20691"
   style="font-size:26.82237053px;font-style:normal;font-variant:normal;font-weight:800;font-stretch:normal;text-align:start;line-height:140.99999666%;letter-spacing:0px;word-spacing:0px;writing-mode:lr-tb;text-anchor:start;fill:#ff0000;fill-opacity:1;stroke:none;display:inline;font-family:Crickx;-inkscape-font-specification:Crickx Ultra-Bold"
   xml:space="preserve"><tspan
     id="tspan5266"
     y="121.05878"
     x="517.20691"
     sodipodi:role="line">ART MEETS RADICAL OPENNESS, LINZ </tspan></text>
</g><g
   inkscape:groupmode="layer"
   id="layer4"
   inkscape:label="SCENARIO"
   style="display:inline"><path
     d="m 232.12706,126.1813 0.0508,-0.3685 c 0.005,1.9698 1.61626,3.5771 3.58037,3.5721 l -7.14225,0.016 c 0.005,1.9698 1.61626,3.5769 3.58038,3.572 l 35.71123,-0.093 c 1.96412,0 3.56696,-1.6208 3.56188,-3.5904 l -7.14226,0.017 c 1.96413,0 3.57226,-1.6207 3.56189,-3.5906 l -0.0508,-9.6638 c -0.005,-1.9697 -1.61626,-3.5771 -3.58037,-3.5721 l -29.55104,10.1085 c -0.98206,0 -2.84907,5.5431 -2.57982,3.5919 z"
     id="path5880"
     style="fill:#ffff00;stroke:none"
     inkscape:connector-curvature="0"
     sodipodi:nodetypes="scccccccscccs" /><path
     d="m 251.81527,105.0364 4.59092,-20.1625 2.68727,0.6124 0.6121,-2.6885 -32.24708,-7.3485 -0.6121,2.6883 2.68726,0.6124 -4.59098,20.1626 26.87261,6.1238 z"
     id="path5298"
     style="fill:#000000;stroke:#ffff00;stroke-width:1.68906271;stroke-miterlimit:4;stroke-dasharray:none;display:inline"
     inkscape:connector-curvature="0" /><path
     sodipodi:nodetypes="ccccccccc"
     inkscape:connector-curvature="0"
     id="path5878"
     d="m 244.29505,104.1451 8.2164,0.2414 -11.64635,-5.0401 1.67461,-5.9482 -4.64133,-1.7413 -0.39862,-7.1712 -13.08644,1.139 -3.54354,10.5352 z"
     style="fill:#000000;stroke:none;display:inline" /><path
     inkscape:connector-curvature="0"
     d="m 229.54143,78.7546 -4.59097,20.1627 26.87266,6.1236 4.59092,-20.1625 2.68727,0.6123 0.6121,-2.6882 -32.24708,-7.3487 -0.61216,2.6885 2.68726,0.6123 z m 10.74907,2.4496 5.37453,1.2246 -0.30605,1.3443 -5.37453,-1.2249 0.30605,-1.344 z m -8.98002,2.1952 21.49813,4.8992 -3.06065,13.4418 -21.49807,-4.8991 3.06059,-13.4419 z"
     id="path5330"
     style="fill:#ff0000;display:inline" /><path
     id="path5366"
     d="m 252.8662,81.1924 16.9296,14.2307 c 2.56865,2.1594 6.43744,1.8251 8.59726,-0.743 l 7.16675,-8.5206 c 1.06027,-1.2604 1.55955,-2.873 1.40853,-4.4944 l -1.61043,-16.9944 c 0,0 -2.67313,0.2636 -2.73575,0.2908 -0.43781,0.069 -0.81963,0.2872 -1.11412,0.6374 -0.216,0.2569 -0.34231,0.5493 -0.40226,0.8572 -0.0274,0.057 -1.35911,7.4452 -1.35911,7.4452 L 265.84098,62.2122 c -0.96905,-0.8146 -2.40908,-0.6898 -3.2239,0.2787 -0.8149,0.9688 -0.69035,2.4083 0.2787,3.2229 l 8.17294,6.8701 -0.98178,1.1674 -11.09183,-9.3238 c -0.96905,-0.8146 -2.40908,-0.6901 -3.22391,0.2787 -0.8149,0.9689 -0.69034,2.4083 0.2787,3.2228 l 11.09184,9.3237 -0.98179,1.1673 -9.92425,-8.3422 c -0.96904,-0.8149 -2.40908,-0.6902 -3.22397,0.2786 -0.81483,0.9688 -0.69035,2.4083 0.27877,3.223 l 9.92425,8.3422 -0.98171,1.1672 -6.42164,-5.3981 c -0.96905,-0.8145 -2.40908,-0.69 -3.2239,0.2788 -0.8149,0.9687 -0.69043,2.4082 0.2787,3.2229 z"
     inkscape:connector-curvature="0"
     style="fill:#ff0000" /><path
     inkscape:connector-curvature="0"
     id="path5368"
     d="m 288.61833,68.9502 -4.99547,1.2538 -0.0412,2.1992 -4.91358,2.6238 -3.72631,-5.1691 -4.61306,-0.266 -4.44343,-16.2723 12.0531,-2.9691 18.34229,5.5863 z"
     style="fill:#000000"
     sodipodi:nodetypes="cccccccccc" /><path
     sodipodi:nodetypes="caaac"
     inkscape:connector-curvature="0"
     id="path5370"
     d="m 279.54554,68.9052 c 0.19289,-2.3428 -1.07064,-2.739 -0.95936,-4.2216 0.10274,-1.3691 1.43896,-2.0966 1.43896,-3.4747 0,-1.3782 -1.33622,-2.1058 -1.43896,-3.4748 -0.11128,-1.4824 0.95936,-2.3507 0.95936,-4.2216"
     style="fill:none;stroke:#ffff00;stroke-width:1.12604177;stroke-linecap:round;stroke-linejoin:round;stroke-miterlimit:4;stroke-opacity:1;stroke-dasharray:none" /><path
     style="fill:none;stroke:#ffff00;stroke-width:1.12604177;stroke-linecap:round;stroke-linejoin:round;stroke-miterlimit:4;stroke-opacity:1;stroke-dasharray:none"
     d="m 272.62256,63.6261 c 0.14666,-1.9514 -0.81444,-2.2811 -0.72986,-3.5153 0.0782,-1.1399 1.09475,-1.7456 1.09475,-2.893 0,-1.1479 -1.01657,-1.753 -1.09475,-2.8932 -0.0846,-1.2342 0.72986,-1.9571 0.72986,-3.5147"
     id="path5372"
     inkscape:connector-curvature="0"
     sodipodi:nodetypes="caaac" /><path
     style="fill:none;stroke:#ffff00;stroke-width:1.12604177;stroke-linecap:round;stroke-linejoin:round;stroke-miterlimit:4;stroke-opacity:1;stroke-dasharray:none"
     d="m 284.80845,63.6261 c 0.13265,-1.8317 -0.73642,-2.1409 -0.65992,-3.2999 0.0709,-1.0702 0.9898,-1.6383 0.9898,-2.7155 0,-1.0773 -0.91909,-1.6457 -0.9898,-2.7159 -0.0765,-1.1591 0.65992,-1.8371 0.65992,-3.2997"
     id="path5374"
     inkscape:connector-curvature="0"
     sodipodi:nodetypes="caaac" /><path
     inkscape:connector-curvature="0"
     style="fill:none;stroke:#ffff00;stroke-width:1.68906271;stroke-miterlimit:4;stroke-dasharray:none"
     id="path5326"
     d="m 235.68895,102.526 c -1.96413,0 -3.56698,1.6207 -3.56189,3.5905 l 0.0508,19.6964 c 0.005,1.9697 1.61625,3.5771 3.58037,3.572 l -7.14225,0.016 c 0.005,1.9698 1.61626,3.577 3.58038,3.572 l 35.71123,-0.093 c 1.96412,0 3.56696,-1.6208 3.56188,-3.5904 l -7.14226,0.016 c 1.96413,0 3.56697,-1.6207 3.56189,-3.5905 l -0.0508,-19.6963 c -0.005,-1.9697 -1.61626,-3.5771 -3.58037,-3.5721 l -28.56898,0.074 z" /><path
     id="path5328"
     d="m 264.33625,129.3123 c 1.9641,0 3.5491,-1.6207 3.54401,-3.5903 l -0.033,-19.6967 c -0.005,-1.9696 -1.61624,-3.5769 -3.58036,-3.5718 l -28.56899,0.074 c -1.96411,0 -3.56697,1.6208 -3.56187,3.5905 l 0.0508,19.6965 c 0.005,1.9698 1.61624,3.5771 3.58035,3.5721 l -7.14224,0.016 c 0.005,1.9695 1.61625,3.5768 3.58037,3.5718 l 35.71124,-0.094 c 1.96412,0 3.56696,-1.621 3.56188,-3.5906 l -7.14224,0.017 z m -28.62909,-23.2036 28.569,-0.074 0.0508,19.6966 -28.569,0.075 -0.0508,-19.6965 z m 14.34921,25.0311 c -0.98206,0 -1.78764,-0.8009 -1.79018,-1.786 -0.003,-0.9847 0.79887,-1.7925 1.78094,-1.795 0.98205,0 1.78764,0.8013 1.79017,1.7861 0.003,0.9848 -0.79888,1.7926 -1.78093,1.7949 z"
     inkscape:connector-curvature="0"
     style="fill:#ff0000;display:inline" /><path
     inkscape:connector-curvature="0"
     style="fill:#ffff00;stroke:none;display:inline"
     id="path5288"
     d="m 278.88141,-14.169 c -6.31482,0 -11.76786,3.6042 -14.51022,8.8296 -6.56611,0.7089 -11.7105,6.2362 -11.7105,12.9891 0,7.2327 5.86688,13.0913 13.11036,13.0913 l 28.40579,0 c 6.03076,0 10.9253,-4.8876 10.9253,-10.9095 0,-5.76 -4.4808,-10.4035 -10.1401,-10.8072 -1.48584,-7.5055 -8.12701,-13.1933 -16.08063,-13.1933 z" /><path
     id="path5290"
     d="m 294.958,-0.9879 c -1.48585,-7.5056 -8.11751,-13.1675 -16.07113,-13.1675 -6.31482,0 -11.7884,3.5781 -14.53065,8.8036 -6.56611,0.7092 -11.69007,6.2619 -11.69007,13.0148 0,7.2328 5.86688,13.0912 13.11036,13.0912 h 28.40579 c 6.03076,0 10.9253,-4.8874 10.9253,-10.9094 0,-5.7601 -4.4903,-10.4291 -10.14961,-10.8327 z m -5.14583,6.4693 -10.9253,10.909 -10.9253,-10.909 h 6.55518 v -8.7276 h 8.74024 v 8.7276 h 6.55518 z"
     inkscape:connector-curvature="0"
     style="fill:#ff0000;display:inline" /><path
     id="path5296"
     d="m 286.18645,27.0118 -7.01939,-7.0153 -7.01939,7.0153 c -3.87897,3.8735 -3.87897,10.1512 0,14.0244 1.93638,1.9337 4.48099,2.9066 7.01939,2.9066 2.5384,0 5.08301,-0.9667 7.01939,-2.9066 3.87897,-3.8732 3.87897,-10.1509 0,-14.0244 z m -7.01939,14.4461 c -1.99224,0 -3.86035,-0.7749 -5.26299,-2.1817 -1.40885,-1.4005 -2.18464,-3.2657 -2.18464,-5.2553 0,-1.9892 0.77579,-3.8543 2.18464,-5.2613 l 5.26299,-5.2554 v 17.9537 z"
     inkscape:connector-curvature="0"
     style="fill:#ff0000;display:inline" /><path
     inkscape:connector-curvature="0"
     id="path5300"
     d="m 168.02133,58.8541 0.4232,0.3372 0.66606,0.5329 0.3135,0.2511 -0.18027,0.3526 c 0,0 -1.59862,3.2267 -3.74586,6.8519 -0.99533,1.6867 -1.43577,4.0713 -1.59872,6.0212 -0.0954,1.1365 -0.0972,1.9955 -0.0864,2.6186 l 9.82704,-5.974 0.75233,-0.4626 0,0.878 0,1.4741 0,0.243 -0.18804,0.1414 c 0,0 -7.74977,6.1532 -9.74873,7.7533 -0.80729,0.6463 -1.54938,2.3911 -1.99054,3.9594 -0.21566,0.7662 -0.36564,1.471 -0.47021,2.0067 0.58332,-0.2809 1.45385,-0.6956 3.00929,-1.4344 2.00529,-0.9531 4.07277,-1.9334 4.70991,-2.1721 0.35461,-0.1344 0.63627,-0.037 0.94027,0.073 0.30406,0.1086 0.63628,0.2727 0.99533,0.4782 0.71773,0.4114 1.54161,0.9858 2.3353,1.5683 1.58728,1.1642 3.03272,2.3753 3.03272,2.3753 l -0.43098,0.8547 c 0,0 -1.06564,-0.2661 -1.89648,-0.541 -0.009,0 -0.009,0 -0.0166,0 -2.06326,-0.6016 -3.44037,0.337 -3.44037,0.337 l -0.0168,0.014 -0.0242,0.015 -10.28946,5.5978 0.38401,15.6706 11.30823,5.8168 -0.29775,0.9174 -12.82069,-1.905 -3.46384,3.9435 -0.41543,0.3526 -0.30558,-0.4467 -2.54685,-4.7041 -11.88043,2.4382 -1.55945,-0.2196 1.41063,-0.7054 9.81141,-8.4202 0,-9.0851 c -0.18327,-0.2101 -5.39007,-6.1799 -6.68459,-7.6046 -0.5342,-0.5887 -1.62261,-0.9998 -2.57841,-1.2074 -0.95557,-0.207 -1.7474,-0.2351 -1.7474,-0.2351 l -0.25873,-0.014 -0.13319,-0.2116 -7.0843,-10.9445 0.7837,-0.6036 c 0,0 4.58369,5.098 6.36328,6.6246 1.67315,1.4351 4.17785,1.218 6.25364,1.3563 l 0.0312,0 0.0313,0.015 c 0.66943,0.1332 1.34044,0.58 2.06112,1.1446 0.72055,0.5648 1.47012,1.2589 2.155,1.9445 0.25565,0.2556 0.23016,0.2577 0.46237,0.5015 -0.41665,-0.9693 -0.47258,-1.1531 -1.21474,-2.7753 -1.50303,-3.2857 -1.10142,-4.8543 -0.70527,-7.1029 0.0187,-0.1085 -0.0207,-0.4747 -0.19596,-0.9407 -0.17419,-0.466 -0.4546,-1.0421 -0.80713,-1.6777 -0.70506,-1.271 -1.69934,-2.7799 -2.70357,-4.2178 -2.00856,-2.8757 -4.06731,-5.4724 -4.06731,-5.4724 l -0.10955,-0.1411 0,-0.1723 0,-1.0662 0,-1.3248 0.86979,1.0035 7.71136,8.9217 1.31652,-9.737 0.0631,-0.4312 0.43093,0 0.93266,0 0.51716,0 -0.0242,0.5172 c 0,0 -0.10157,2.4716 -0.23497,5.2136 -0.13363,2.742 -0.28986,5.7204 -0.4311,6.8521 -0.24707,1.9809 -0.14211,4.7682 -0.13323,4.9938 l 4.52205,6.4989 c 0.20684,-0.7777 0.73736,-2.7911 1.57516,-5.8326 0.9854,-3.5779 2.06715,-7.4019 2.57043,-8.6944 0.18717,-0.4809 0.29158,-1.3919 0.29782,-2.4303 0.009,-1.0381 -0.0719,-2.2154 -0.18023,-3.3241 -0.2151,-2.2169 -0.54862,-4.1394 -0.54862,-4.1394 l -0.12533,-0.7524 0.7366,0.188 1.06588,0.2665 0.2664,0.063 0.0864,0.2664 1.41854,4.4845 4.6393,-7.1345 0.29784,-0.4546 z"
     style="fill:#ff0000"
     sodipodi:nodetypes="cccccccccccccccccccsccccccccccccccccccccccccccccccsccccccccccscccccccccccccccccsccccccccccccc" /><path
     inkscape:connector-curvature="0"
     id="path5302"
     d="m 243.06462,136.261 c 0,7.456 -35.44869,13.5008 -79.17694,13.5008 -43.7282,0 -79.17688,-6.0448 -79.17688,-13.5008 0,-7.4561 35.44868,-13.5003 79.17688,-13.5003 43.72825,0 79.17694,6.0442 79.17694,13.5003 z"
     style="color:#000000;fill:#ffff00;fill-opacity:1;fill-rule:nonzero;stroke:none;stroke-width:1;marker:none;visibility:visible;display:inline;overflow:visible;enable-background:accumulate" /><path
     inkscape:connector-curvature="0"
     style="color:#000000;fill:#ffff00;stroke:#ff0000;stroke-width:3.30118442;stroke-linecap:round;stroke-linejoin:miter;stroke-miterlimit:4;stroke-opacity:1;stroke-dasharray:none;stroke-dashoffset:0;marker:none;visibility:visible;display:inline;overflow:visible;enable-background:accumulate"
     d="m 84.7108,136.2611 c 0,-7.4561 35.44862,-13.5003 79.17689,-13.5003 43.72825,0 79.17686,6.0442 79.17686,13.5003"
     id="path5306"
     sodipodi:nodetypes="csc" /><path
     d="m 235.84054,113.1329 c 1.38775,-0.6269 2.00425,-2.2592 1.37753,-3.6477 L 231.54672,96.921 c -0.62672,-1.3886 -2.25833,-2.0053 -3.64614,-1.3782 l 5.02373,-2.2695 -1.13431,-2.5127 -30.14235,13.6166 1.13424,2.5131 5.02368,-2.2696 c -1.38775,0.6268 -2.00419,2.259 -1.37748,3.6475 l 5.67129,12.5644 c 0.62666,1.3886 2.25833,2.0052 3.64619,1.3783 l 20.09497,-9.078 z"
     id="path5308"
     style="fill:#ffff00;stroke:#ffff00;stroke-width:1.68906271;stroke-miterlimit:4;stroke-dasharray:none;display:inline"
     inkscape:connector-curvature="0" /><path
     inkscape:connector-curvature="0"
     d="m 207.79706,104.6232 c -1.38787,0.6269 -1.99176,2.2536 -1.36506,3.6419 l 5.65878,12.5702 c 0.62665,1.3883 2.25832,2.005 3.64619,1.3781 l 20.09496,-9.0777 c 1.38775,-0.6271 2.00425,-2.2594 1.37759,-3.6478 l -5.67135,-12.5645 c -0.62678,-1.3885 -2.25839,-2.0048 -3.6462,-1.3781 l 5.02373,-2.2693 -1.13425,-2.5131 -30.14241,13.6168 1.13431,2.513 5.02371,-2.2695 z m 26.90062,5.9994 -20.09502,9.0778 -5.67134,-12.5642 20.0949,-9.078 5.67146,12.5644 z"
     id="path5310"
     style="fill:#ff0000;display:inline" /><path
     d="m 190.81721,113.0522 c -2.23497,-0.2533 -4.27078,1.3686 -4.52407,3.6044 l -2.533,22.3585 c -0.25328,2.2359 1.36804,4.2725 3.60298,4.5259 l -8.12703,-0.9213 c -0.2533,2.2357 1.36804,4.2723 3.60296,4.5258 l 40.63527,4.6073 c 2.23495,0.2533 4.27077,-1.3686 4.52407,-3.6045 l -8.12705,-0.9215 c 2.23494,0.2533 4.27076,-1.3686 4.52407,-3.6043 l 2.53299,-22.3584 c 0.2533,-2.236 -1.36806,-4.2727 -3.60299,-4.526 l -32.5082,-3.6859 z"
     id="path5314"
     style="fill:#ffff00;stroke:#ffff00;stroke-width:1.98071063;stroke-miterlimit:4;stroke-dasharray:none"
     inkscape:connector-curvature="0" /><path
     inkscape:connector-curvature="0"
     d="m 219.88135,147.2299 c 2.23493,0.2534 4.25045,-1.371 4.50374,-3.6068 l 2.5533,-22.3562 c 0.25331,-2.2357 -1.36803,-4.2724 -3.60298,-4.5258 l -32.50821,-3.6858 c -2.23493,-0.2534 -4.27078,1.3686 -4.52406,3.6045 l -2.53299,22.3584 c -0.2533,2.2359 1.36805,4.2725 3.60296,4.5259 l -8.12704,-0.9214 c -0.25328,2.2358 1.36803,4.2725 3.603,4.5257 l 40.63526,4.6074 c 2.23494,0.2535 4.27077,-1.3686 4.52407,-3.6046 l -8.12705,-0.9213 z m -29.51469,-30.1095 32.50822,3.686 -2.53298,22.3585 -32.50823,-3.686 2.53299,-22.3585 z m 13.0303,30.2991 c -1.11746,-0.1266 -1.92814,-1.1451 -1.80149,-2.2628 0.12666,-1.118 1.14457,-1.9289 2.26204,-1.8022 1.11747,0.1265 1.92814,1.145 1.80148,2.2627 -0.12663,1.1181 -1.14456,1.9291 -2.26203,1.8023 z"
     id="path5316"
     style="fill:#ff0000" /><path
     sodipodi:nodetypes="csccccccccccc"
     inkscape:connector-curvature="0"
     id="path5318"
     d="m 243.06462,136.261 c 0,7.456 -35.44869,13.5008 -79.17694,13.5008 -43.7282,0 -79.17688,-6.0448 -79.17688,-13.5008 l -15.64156,11.2365 6.19564,60.3732 11.12126,-6.7973 8.04326,0.5289 3.54856,-10.9719 6.02369,3.5288 8.37059,-9.3917 51.06507,-25.2051 82.41261,14.8594 z"
     style="color:#000000;fill:#000000;stroke:none;stroke-width:1;marker:none;visibility:visible;display:inline;overflow:visible;enable-background:accumulate" /><path
     style="color:#000000;fill:#ffff00;stroke:#ff0000;stroke-width:3.30118442;stroke-linecap:round;stroke-linejoin:miter;stroke-miterlimit:4;stroke-opacity:1;stroke-dasharray:none;stroke-dashoffset:0;marker:none;visibility:visible;display:inline;overflow:visible;enable-background:accumulate"
     d="m 243.06455,136.2611 c 0,7.456 -35.44861,13.5007 -79.17686,13.5007 -43.72827,0 -79.17689,-6.0447 -79.17689,-13.5007"
     id="path5320"
     inkscape:connector-curvature="0"
     sodipodi:nodetypes="csc" /><path
     sodipodi:nodetypes="cccccccccccccc"
     inkscape:connector-curvature="0"
     id="path5332"
     d="m 181.24929,100.4266 -9.75125,13.7724 10.94197,5.9506 4.30053,-8.0703 7.62434,0.2157 6.61567,2.5476 0.58548,6.6188 8.16074,0.7246 3.35829,6.1537 12.77939,-11.7495 -6.39206,-2.0886 2.59845,-9.5891 -16.93771,-4.6797 z"
     style="fill:#000000;stroke:none;display:inline" /><path
     id="path5338"
     d="m 166.90944,23.4849 c -0.94191,-4.7649 -5.14587,-8.3593 -10.18783,-8.3593 -4.00314,0 -7.47295,2.2717 -9.2113,5.589 -4.16241,0.4502 -7.41061,3.9754 -7.41061,8.2621 0,4.5916 3.71913,8.3108 8.31096,8.3108 h 18.00703 c 3.82303,0 6.9258,-3.1027 6.9258,-6.9257 0,-3.6565 -2.84651,-6.6208 -6.43405,-6.8769 z"
     inkscape:connector-curvature="0"
     style="fill:#ffff00;stroke:#ffff00;stroke-width:1.98071086;stroke-miterlimit:4;stroke-dasharray:none;display:inline" /><path
     inkscape:connector-curvature="0"
     d="m 166.90944,23.4849 c -0.94191,-4.7648 -5.14588,-8.3591 -10.18784,-8.3591 -2.0431,0 -3.9477,0.6025 -5.55448,1.6205 l 2.02231,2.0223 c 1.05965,-0.5471 2.25781,-0.8726 3.53217,-0.8726 4.21088,0 7.61837,3.4075 7.61837,7.6181 v 0.6925 h 2.07772 c 2.29246,0 4.15546,1.8629 4.15546,4.1554 0,1.5721 -0.87958,2.9225 -2.16776,3.6289 l 2.00848,2.0085 c 1.76609,-1.2537 2.92962,-3.3035 2.92962,-5.6374 0,-3.6567 -2.84651,-6.621 -6.43405,-6.8771 z m -22.6543,-6.5931 3.80921,3.7951 c -4.41867,0.1871 -7.96466,3.8229 -7.96466,8.2899 0,4.5917 3.71914,8.3106 8.31096,8.3106 h 16.24098 l 2.7703,2.7704 1.76609,-1.7591 -23.16676,-23.1729 -1.76612,1.766 z m 6.54489,6.5445 11.08126,11.0809 h -13.47064 c -3.06121,0 -5.54062,-2.4793 -5.54062,-5.5404 0,-3.061 2.47941,-5.5405 5.54062,-5.5405 h 2.38938 z"
     id="path5340"
     style="fill:#ff0000;display:inline" /><path
     inkscape:connector-curvature="0"
     id="path5342"
     d="m 157.54057,34.7756 0,5.5404 0,2.0777 2.77029,0 -5.54063,10.3883 0,-7.6182 -2.77029,0 2.57554,-4.8478 2.96509,-5.5404 z"
     style="fill:#ff0000;fill-opacity:1;display:inline" /><path
     sodipodi:nodetypes="ccccccccccccccccccc"
     inkscape:connector-curvature="0"
     id="path5344"
     d="m 27.63451,139.1561 -17.15737,1.5487 14.43258,-9.1088 8.19194,1.4826 4.91646,-5.5554 5.11469,1.3596 10.88289,-3.3648 13.70367,0.74 13.27432,-2.6254 13.75852,-32.5367 14.53195,37.1117 -22.52022,5.1124 -6.19092,5.6912 -8.38153,3.0526 -6.43328,8.5381 -11.9999,-2.5314 -3.70353,-6.6804 -13.83204,5.5983 z"
     style="fill:#ff0000" /><path
     style="fill:#ff0000"
     d="m 80.03198,122.3555 -0.15431,-0.076 c -3.90885,-2.4388 -8.75996,-2.5231 -13.21048,-1.7701 -5.08621,0.8599 -9.60285,2.7891 -11.47057,3.4543 -3.46873,1.2359 -7.20667,0.4966 -9.646,-0.058 l -0.29544,-0.073 -0.0623,0 c -0.68829,-0.1551 -1.54003,-0.5704 -2.31069,-0.9901 l -1.44744,-0.7904 0.84617,1.4349 5.50329,9.2265 0.17706,0.3339 0.36449,-0.1208 c 0.59655,-0.2306 3.90264,-1.5488 5.00157,-1.9385 -1.9e-4,0 0.0202,0.017 0.0235,0.017 l 0.23037,-0.077 c 0.52888,-0.1779 1.09309,-0.07 2.40309,0.3292 1.29956,0.3959 3.33926,1.104 6.78834,2.1069 l 0.0387,0 c 7.92237,1.6094 13.34869,0.3151 16.79449,-1.3878 2.3322,-1.1523 3.6791,-2.427 4.35236,-3.1641 l 0.47979,-0.5234 -0.65976,-0.1942 -6.96869,-2.3392 -0.27908,-0.096 0.28576,-0.1081 c 0,0 2.39798,-1.0232 3.90811,-1.8184 l 0.63061,-0.3467 -0.57425,-0.4098 c -0.22255,-0.1685 -0.47667,-0.3806 -0.7416,-0.5636 l 0,-0.038 z"
     id="path5346"
     inkscape:connector-curvature="0" /><path
     inkscape:connector-curvature="0"
     d="m 77.34315,130.4613 c -0.36691,0.5113 -1.14647,0.582 -1.74136,0.1584 -0.59485,-0.4242 -0.77969,-1.1831 -0.41281,-1.6947 0.36682,-0.5117 1.14635,-0.582 1.74128,-0.1586 0.59481,0.4245 0.77971,1.1832 0.41289,1.6948 z m 2.9006,-8.741 c -4.08913,-2.5583 -9.15313,-2.6097 -13.6882,-1.843 -5.18299,0.8766 -9.77545,2.8406 -11.57723,3.482 -3.38941,1.2078 -7.21935,0.3825 -9.63452,-0.1717 -0.63051,-0.1428 -1.663,-0.6443 -2.48708,-1.1078 -0.82422,-0.4634 -1.45804,-0.8839 -1.45804,-0.8839 l -0.78684,0.7458 6.83479,11.5097 0.23939,0.4048 0.43667,-0.1742 c 0,0 4.74354,-1.8251 5.65683,-2.1379 0.29815,-0.099 0.71808,-0.045 2.00091,0.3453 1.2885,0.3923 3.3542,1.0849 6.85318,2.1012 l 0.0234,0 0.0264,0 c 8.04923,1.6354 13.65041,0.3122 17.22388,-1.4537 3.57331,-1.7661 5.15808,-4.0095 5.15808,-4.0095 l 0.41957,-0.6103 -0.70161,-0.2317 -6.37641,-2.1245 c 1.10806,-0.4846 2.52924,-1.1315 3.45186,-1.7029 l 0.63797,-0.3933 -0.56352,-0.4972 c -0.54001,-0.4733 -1.10273,-0.8902 -1.68673,-1.2557 z m -0.59769,0.9418 c 0.2986,0.1858 0.57472,0.4244 0.86033,0.6405 -1.47923,0.779 -3.87699,1.8233 -3.87699,1.8233 l -1.36291,0.5688 1.40492,0.4742 6.96542,2.3201 c -0.64468,0.7059 -1.95116,1.9378 -4.22743,3.0626 -3.3597,1.6605 -8.66935,2.9519 -16.50572,1.36 -3.4415,-1.0005 -5.48761,-1.6897 -6.80052,-2.0897 -1.32125,-0.4023 -2.00665,-0.555 -2.68144,-0.3285 l -0.01,0 c -0.96433,0.3307 -4.62936,1.7551 -5.25029,1.9952 l -5.49667,-9.2474 c 0.78338,0.4271 1.65227,0.8519 2.42317,1.0277 l 0.36348,0.088 0.008,0 c 2.44844,0.5574 6.27029,1.3482 9.88897,0.059 1.90923,-0.6796 6.37348,-2.5825 11.39337,-3.4315 4.39249,-0.7425 9.13534,-0.6613 12.90368,1.6902 z"
     style="fill:#ffff00;display:inline"
     id="path5348" /><path
     id="path5352"
     d="m 109.24776,42.4374 c -1.24328,-6.2583 -6.79229,-10.9796 -13.44744,-10.9796 -5.28394,0 -9.86389,2.9836 -12.1585,7.3408 -5.49413,0.5912 -9.78158,5.2216 -9.78158,10.852 0,6.0309 4.90905,10.9159 10.97006,10.9159 h 23.76841 c 5.04621,0 9.1417,-4.0752 9.1417,-9.0965 0,-4.803 -3.75727,-8.6963 -8.49265,-9.0326 z m -17.10416,12.6713 -6.39917,-6.3678 2.58714,-2.5742 3.81203,3.7935 9.46169,-9.4152 2.58709,2.5744 -12.04878,11.9893 z"
     inkscape:connector-curvature="0"
     style="fill:#ff0000;display:inline" /><path
     id="path5354"
     d="m 104.67974,77.6422 -3.86111,0 0,-11.8705 3.86111,0 z m -7.72224,-3.8514 -3.86116,0 0,-8.0191 3.86116,0 z m 0,11.5545 -3.86116,0 0,-7.7031 3.86116,0 z m -7.72227,-7.7031 -3.86115,0 0,-11.8705 3.86115,0 z m 15.44451,7.7031 -3.86111,0 0,-3.8513 3.86111,0 z m -15.44451,0 -3.86115,0 0,-3.8513 3.86115,0 z"
     inkscape:connector-curvature="0"
     style="fill:#ff0000;display:inline"
     sodipodi:nodetypes="cccccccccccccccccccccccccccccc" /><path
     inkscape:connector-curvature="0"
     style="fill:#ffff00;stroke:#ffff00;stroke-width:1.68900001;stroke-miterlimit:4;stroke-dasharray:none;display:inline"
     id="path5376"
     d="m 256.07593,121.0385 c -1.7267,0.01 -3.13047,1.4305 -3.1195,3.1549 l 0.10927,17.2453 c 0.011,1.7248 1.43257,3.1269 3.15922,3.1161 l -6.27872,0.037 c 0.011,1.7245 1.43257,3.1268 3.15927,3.116 l 31.39348,-0.1957 c 1.72664,-0.013 3.13036,-1.4307 3.1195,-3.1551 l -6.27872,0.038 c 1.72665,-0.011 3.13042,-1.4302 3.11945,-3.1549 l -0.10922,-17.2454 c -0.011,-1.7245 -1.43262,-3.1265 -3.15927,-3.1157 l -25.11476,0.1565 z" /><g
     id="g5400"
     transform="matrix(-0.5808068,-0.38119439,-0.38047502,0.58190497,1429.3833,917.12112)"><path
       d="m 1975.5385,-90.544038 c -2.4487,6e-6 -4.4521,2.003473 -4.4521,4.452144 l 0,24.486807 c 0,2.448679 2.0034,4.452155 4.4521,4.45214 l -8.9043,1.3e-5 c 0,2.44867 2.0035,4.45213 4.4522,4.452139 l 44.5214,-1e-5 c 2.4487,9e-6 4.4522,-2.003458 4.4522,-4.452128 l -8.9043,-1.1e-5 c 2.4487,9e-6 4.4521,-2.003459 4.4521,-4.452144 l 0,-24.486808 c 0,-2.44867 -2.0034,-4.452139 -4.4521,-4.45214 l -35.6172,-2e-6 z"
       id="path5402"
       style="fill:#ffff00;stroke:#ffff00;stroke-width:2.43034554;stroke-miterlimit:4;stroke-dasharray:none"
       inkscape:connector-curvature="0" /><path
       style="fill:#ff0000"
       inkscape:connector-curvature="0"
       d="m 2011.1669,-57.150916 c 2.4487,0 4.4299,-2.003471 4.4299,-4.452141 l 0.022,-24.486804 c 0,-2.448686 -2.0034,-4.452146 -4.4521,-4.452155 l -35.6172,1.2e-5 c -2.4487,0 -4.4521,2.003458 -4.4521,4.452138 l 0,24.486807 c 0,2.448686 2.0034,4.452146 4.4521,4.452146 l -8.9043,-2e-6 c 0,2.448671 2.0035,4.452146 4.4522,4.45214 l 44.5214,1.4e-5 c 2.4487,-1.5e-5 4.4522,-2.003482 4.4522,-4.452153 l -8.9043,-2e-6 z m -35.6172,-28.938953 35.6172,1.1e-5 0,24.486793 -35.6172,3e-6 0,-24.486807 z m 17.8086,31.165022 c -1.2243,0 -2.2261,-1.00173 -2.2261,-2.226066 0,-1.224335 1.0018,-2.226069 2.2261,-2.226084 1.2243,1e-6 2.2261,1.001731 2.2261,2.226081 0,1.224344 -1.0018,2.226069 -2.2261,2.226069 z"
       id="path5404" /><path
       sodipodi:nodetypes="cccc"
       inkscape:connector-curvature="0"
       id="path5406"
       d="m 2010.1669,-76.089858 0,13.486793 -33.6172,3e-6 z"
       style="fill:#ff0000" /></g><path
     style="color:#000000;fill:#ffff00;fill-opacity:1;fill-rule:nonzero;stroke:#ffff00;stroke-width:1.6890626;stroke-miterlimit:4;stroke-dasharray:none;marker:none;visibility:visible;display:inline;overflow:visible;enable-background:accumulate"
     d="m 301.63463,136.9348 c 0,1.9888 1.58329,3.9148 3.53647,3.9148 1.95304,0 3.53646,-1.926 3.53646,-3.9148 0,-2.3907 -3.53646,-8.1245 -3.53646,-8.1245 0,0 -3.53647,5.5144 -3.53647,8.1245 z"
     id="path5410"
     inkscape:connector-curvature="0"
     sodipodi:nodetypes="ssscs" /><path
     sodipodi:nodetypes="ssscs"
     inkscape:connector-curvature="0"
     id="path5412"
     d="m 301.63463,136.9349 c 0,1.9887 1.58329,3.9147 3.53647,3.9147 1.95304,0 3.53646,-1.926 3.53646,-3.9147 0,-2.3907 -3.53646,-8.1245 -3.53646,-8.1245 0,0 -3.53647,5.5144 -3.53647,8.1245 z"
     style="color:#000000;fill:#ff0000;fill-opacity:1;fill-rule:nonzero;stroke:none;stroke-width:0.5;marker:none;visibility:visible;display:inline;overflow:visible;enable-background:accumulate" /><path
     sodipodi:nodetypes="caaac"
     inkscape:connector-curvature="0"
     id="path5416"
     d="m 305.53442,170.5292 c 0,-3.9373 -1.65735,-4.3613 -1.45209,-6.6061 0.17022,-1.8617 2.30225,-3.3068 2.17809,-5.1719 -0.13268,-1.993 -2.812,-3.1878 -3.03941,-5.1723 -0.18435,-1.6088 1.86948,-1.8301 1.45209,-4.6377"
     style="fill:none;stroke:#ffff00;stroke-width:1.12604189;stroke-linecap:round;stroke-linejoin:round;stroke-miterlimit:4;stroke-opacity:1;stroke-dasharray:none;display:inline" /><path
     style="fill:#000000;stroke:none;display:inline"
     d="m 254.46991,123.9038 1.17113,11.8033 3.92228,-3.7221 5.81748,0.621 2.44189,-5.1046 4.59696,-0.6196 -0.88692,-3.5999 -11.34609,-0.3491 z"
     id="path5334-7"
     inkscape:connector-curvature="0"
     sodipodi:nodetypes="ccccccccc" /><path
     id="path5484"
     d="m 281.33982,144.3265 c 1.72666,-0.01 3.11475,-1.4202 3.10383,-3.1324 l -0.0936,-17.123 c -0.0109,-1.7122 -1.43264,-3.1044 -3.1593,-3.0937 l -25.11504,0.1553 c -1.72666,0.01 -3.13045,1.4203 -3.11948,3.1327 l 0.10927,17.1227 c 0.0109,1.7123 1.43259,3.1046 3.15925,3.0938 l -6.27873,0.037 c 0.0109,1.7124 1.43254,3.1044 3.1592,3.0938 l 31.39382,-0.1941 c 1.72665,-0.01 3.13044,-1.4206 3.11952,-3.1329 l -6.27877,0.036 z m -25.24422,-20.0805 25.11509,-0.1554 0.10927,17.1227 -25.11504,0.1555 -0.10932,-17.1228 z m 12.69665,21.7149 c -0.86335,0.01 -1.57419,-0.6908 -1.57965,-1.5469 -0.006,-0.8562 0.69644,-1.561 1.5598,-1.5664 0.8633,-0.011 1.57408,0.6907 1.57959,1.547 0.005,0.856 -0.69643,1.5611 -1.55974,1.5663 z"
     inkscape:connector-curvature="0"
     style="fill:#ff0000;stroke:none;display:inline" /><g
     id="g5382"
     transform="matrix(-0.27076413,-0.565324,0.56530788,-0.27077185,739.01491,569.92816)"
     style="display:inline"><path
       d="m 1011.3647,-356.28211 c 0,-3.31 -2.69,-6 -6,-6 l -31.99997,0 c -3.31,0 -6,2.69 -6,6 l 0,16 c 0,3.31 2.69,6 6,6 l 31.99997,0 c 3.31,0 6,-2.69 6,-6 l 0,-16 z"
       id="path5384"
       style="fill:#ffff00;stroke:#ffff00;stroke-width:2.69467378;stroke-miterlimit:4;stroke-dasharray:none"
       inkscape:connector-curvature="0" /><path
       style="fill:#ff0000"
       inkscape:connector-curvature="0"
       d="m 1011.3759,-340.29152 0,-16 c 0,-3.31 -2.69,-6 -6,-6 l -32.00004,0 c -3.31,0 -6,2.69 -6,6 l 0,16 c 0,3.31 2.69,6 6,6 l 32.00004,0 c 3.31,0 6,-2.69 6,-6 z m -40.00004,-4 0,-8 2,0 0,8 -2,0 z m 6,6.5 0,-21 28.00004,0 0,21 -28.00004,0 z"
       id="path5386" /></g><g
     id="g5752"
     transform="matrix(1.0561793,0,0,1.0561793,-184.91354,1436.4522)"><path
       inkscape:connector-curvature="0"
       id="path5548"
       d="m 553.94184,-1224.9497 c 0,1.6837 -5.84615,3.0489 -13.05778,3.0489 -7.21165,0 -13.0578,-1.3652 -13.0578,-3.0489 0,-1.6838 5.84615,-3.0488 13.0578,-3.0488 7.21163,0 13.05778,1.365 13.05778,3.0488 z"
       style="color:#000000;fill:#ff0000;fill-opacity:1;fill-rule:nonzero;stroke:#ff0000;stroke-width:2.84042668;stroke-linecap:round;stroke-linejoin:miter;stroke-miterlimit:4;stroke-opacity:1;stroke-dasharray:none;stroke-dashoffset:0;marker:none;visibility:visible;display:inline;overflow:visible;enable-background:accumulate"
       sodipodi:nodetypes="sssss" /><path
       style="fill:#ff0000;display:inline"
       inkscape:connector-curvature="0"
       d="m 555.70444,-1321.0948 c -1.03104,-5.2254 -5.6327,-9.1672 -11.15174,-9.1672 -4.38175,0 -8.17985,2.4911 -10.08277,6.1291 -4.55614,0.4937 -8.11162,4.3597 -8.11162,9.061 0,5.0354 4.07096,9.114 9.09723,9.114 h 19.71057 c 4.18476,0 7.58106,-3.4026 7.58106,-7.5951 0,-4.0102 -3.1158,-7.2608 -7.04273,-7.5418 z"
       id="path5550" /><path
       style="color:#000000;fill:#ffff00;fill-opacity:1;fill-rule:nonzero;stroke:#ff0000;stroke-width:2.84042692;stroke-linecap:round;stroke-linejoin:round;stroke-miterlimit:4;stroke-opacity:1;stroke-dasharray:none;stroke-dashoffset:0;marker:none;visibility:visible;display:inline;overflow:visible;enable-background:accumulate"
       d="m 558.0669,-1284.6226 c 0,2.6748 -5.62723,4.8429 -12.5688,4.8429 -6.94157,0 -12.5688,-2.1681 -12.5688,-4.8429 0,-2.6747 5.62723,-4.843 12.5688,-4.843 6.94157,0 12.5688,2.1683 12.5688,4.843 z"
       id="path5552"
       inkscape:connector-curvature="0" /><path
       id="path5554"
       d="m 532.9293,-1222.4754 0,-62.0726 c 0,1.6193 5.62723,2.9318 12.5688,2.9318 6.94157,0 12.5688,-1.3125 12.5688,-2.9318 l 0,62.0726 z"
       style="color:#000000;fill:#ff0000;fill-opacity:1;fill-rule:nonzero;stroke:#ff0000;stroke-width:2.84042668;stroke-linecap:round;stroke-linejoin:miter;stroke-miterlimit:4;stroke-opacity:1;stroke-dasharray:none;stroke-dashoffset:0;marker:none;visibility:visible;display:inline;overflow:visible;enable-background:accumulate"
       inkscape:connector-curvature="0"
       sodipodi:nodetypes="cccccc" /><path
       style="fill:#ffff00;stroke:none"
       inkscape:connector-curvature="0"
       d="m 573.24962,-1327.5567 c -0.84436,-4.2794 -4.6129,-7.5075 -9.13269,-7.5075 -3.5885,0 -6.69894,2.0401 -8.25728,5.0194 -3.73129,0.4044 -6.64308,3.5704 -6.64308,7.4205 0,4.1238 3.33397,7.464 7.45019,7.464 h 16.14205 c 3.42709,0 6.20849,-2.7866 6.20849,-6.22 0,-3.2842 -2.55169,-5.9463 -5.76768,-6.1764 z"
       id="path5558" /><path
       id="path5560"
       d="m 573.24962,-1327.5567 c -0.84436,-4.2794 -4.6129,-7.5075 -9.13269,-7.5075 -1.83148,0 -3.53882,0.5411 -4.97919,1.4556 l 1.81287,1.8161 c 0.9499,-0.4914 2.02397,-0.7837 3.16632,-0.7837 3.77476,0 6.82934,3.0602 6.82934,6.8418 v 0.6221 h 1.86254 c 2.05502,0 3.7251,1.6731 3.7251,3.732 0,1.4119 -0.78849,2.6248 -1.94326,3.2592 l 1.80046,1.8037 c 1.58317,-1.1257 2.62619,-2.9668 2.62619,-5.0629 0,-3.2842 -2.55169,-5.9463 -5.76768,-6.1764 z m -20.30795,-5.9215 3.41466,3.4085 c -3.96101,0.168 -7.13976,3.4335 -7.13976,7.4454 0,4.1238 3.33397,7.464 7.45019,7.464 h 14.5589 l 2.48339,2.4879 1.58316,-1.5799 -20.76737,-20.8119 -1.58317,1.586 z m 5.86702,5.8779 9.93357,9.9519 h -12.0755 c -2.74416,0 -4.96679,-2.2268 -4.96679,-4.9759 0,-2.7493 2.22263,-4.976 4.96679,-4.976 h 2.14193 z"
       inkscape:connector-curvature="0"
       style="fill:#ff0000" /><path
       style="fill:#ff0000;display:inline"
       id="path5562"
       d="m 595.45624,-1319.4267 c -0.84435,-4.2793 -4.61289,-7.5074 -9.13268,-7.5074 -3.5885,0 -6.69895,2.0401 -8.25727,5.0195 -3.73131,0.4043 -6.64308,3.5703 -6.64308,7.4204 0,4.1237 3.33395,7.4639 7.45018,7.4639 h 16.14206 c 3.42708,0 6.20847,-2.7865 6.20847,-6.22 0,-3.2841 -2.55168,-5.9462 -5.76768,-6.1764 z"
       inkscape:connector-curvature="0" /><path
       style="color:#000000;fill:#ff0000;fill-opacity:1;fill-rule:nonzero;stroke:none;stroke-width:3;marker:none;visibility:visible;display:inline;overflow:visible;enable-background:accumulate"
       d="m 569.11088,-1270.2532 -15.43151,12.4445 0,39.7642 52.69873,0 0,-39.7642 0,-12.4445 -12.4224,8.3029 0,-8.3029 -12.42241,8.3029 0,-8.3029 -12.42241,8.3029 z"
       id="path5564"
       inkscape:connector-curvature="0"
       sodipodi:nodetypes="cccccccccccc" /><path
       d="m 553.1224,-1245.1635 0,3.8527 -3.18183,0 c -1.42157,0 -2.58129,1.163 -2.58129,2.5885 l 0,48.8097 c 0,1.4161 1.15972,2.5888 2.58129,2.5888 l 14.07771,0 c 1.41194,0 2.58138,-1.1632 2.58138,-2.5888 l 0,-48.8097 c -0.009,-1.4255 -1.15982,-2.5885 -2.58138,-2.5885 l -3.2117,0 0,-3.8527 z"
       id="path5570"
       style="fill:#ffff00;stroke:#ffff00;stroke-width:2.84042668;stroke-miterlimit:4;stroke-dasharray:none"
       inkscape:connector-curvature="0"
       sodipodi:nodetypes="ccsssssscsccc" /><path
       style="fill:#ff0000"
       d="m 560.84548,-1245.1435 0,3.8505 3.17826,0 c 1.42157,0 2.57604,1.1415 2.57604,2.5672 l 0,48.8047 c 0,1.4159 -1.15447,2.601 -2.57604,2.601 l -14.08469,0 c -1.41194,0 -2.57604,-1.1755 -2.57604,-2.601 l 0,-48.8047 c 0.009,-1.4257 1.15449,-2.5672 2.57604,-2.5672 l 3.21172,0 0,-3.8505 z"
       id="path5825"
       inkscape:connector-curvature="0"
       sodipodi:nodetypes="ccsssssscsccc" /><path
       inkscape:connector-curvature="0"
       style="fill:#ffff00;stroke:#ffff00;stroke-width:2.84042668;stroke-miterlimit:4;stroke-dasharray:none"
       id="path5576"
       d="m 527.31099,-1245.1635 0,3.8527 -3.18181,0 c -1.42158,0 -2.58131,1.163 -2.58131,2.5885 l 0,48.8097 c 0,1.4161 1.15973,2.5888 2.58131,2.5888 l 14.07768,0 c 1.41197,0 2.58141,-1.1632 2.58141,-2.5888 l 0,-48.8097 c -0.009,-1.4255 -1.15983,-2.5885 -2.58141,-2.5885 l -3.21168,0 0,-3.8527 z"
       sodipodi:nodetypes="ccsssssscsccc" /><path
       style="fill:#ff0000"
       d="m 527.3233,-1245.1434 0,3.8505 -3.21171,0 c -1.42156,0 -2.54258,1.1415 -2.54258,2.5671 l 0,48.8047 c 0,1.416 1.12102,2.601 2.54258,2.601 l 14.08468,0 c 1.41198,0 2.57606,-1.1755 2.57606,-2.601 l 0,-48.8047 c -0.009,-1.4256 -1.15449,-2.5671 -2.57606,-2.5671 l -3.2117,0 0,-3.8505 z"
       id="path5820"
       inkscape:connector-curvature="0"
       sodipodi:nodetypes="ccsssssscsccc" /><path
       inkscape:connector-curvature="0"
       style="fill:#ffff00;stroke:#ffff00;stroke-width:2.84042668;stroke-miterlimit:4;stroke-dasharray:none"
       id="path5582"
       d="m 578.9338,-1245.1635 0,3.8527 -3.18181,0 c -1.42156,0 -2.5813,1.163 -2.5813,2.5885 l 0,48.8097 c 0,1.4161 1.15974,2.5888 2.5813,2.5888 l 14.0777,0 c 1.41194,0 2.58137,-1.1632 2.58137,-2.5888 l 0,-48.8097 c -0.009,-1.4255 -1.15981,-2.5885 -2.58137,-2.5885 l -3.21171,0 0,-3.8527 z"
       sodipodi:nodetypes="ccsssssscsccc" /><path
       style="fill:#ff0000"
       d="m 578.94478,-1245.1434 0,3.8505 -3.21172,0 c -1.42156,0 -2.54258,1.1415 -2.54258,2.5671 l 0,48.8047 c 0,1.416 1.12102,2.601 2.54258,2.601 l 14.08469,0 c 1.41197,0 2.57605,-1.1755 2.57605,-2.601 l 0,-48.8047 c -0.009,-1.4256 -1.15449,-2.5671 -2.57605,-2.5671 l -3.17826,0 0,-3.8505 z"
       id="path5830"
       inkscape:connector-curvature="0"
       sodipodi:nodetypes="ccsssssscsccc" /><path
       d="m 604.74522,-1245.1635 0,3.8527 -3.18183,0 c -1.42158,0 -2.58129,1.163 -2.58129,2.5885 l 0,48.8097 c 0,1.4161 1.15971,2.5888 2.58129,2.5888 l 14.07768,0 c 1.41196,0 2.5814,-1.1632 2.5814,-2.5888 l 0,-48.8097 c -0.009,-1.4255 -1.15982,-2.5885 -2.5814,-2.5885 l -3.21168,0 0,-3.8527 z"
       id="path5588"
       style="fill:#ffff00;stroke:#ffff00;stroke-width:2.84042668;stroke-miterlimit:4;stroke-dasharray:none"
       inkscape:connector-curvature="0"
       sodipodi:nodetypes="ccsssssscsccc" /><path
       style="fill:#ff0000"
       d="m 612.46696,-1245.1435 0,3.8505 3.17824,0 c 1.42159,0 2.57605,1.1415 2.57605,2.5672 l 0,48.8047 c 0,1.4159 -1.15446,2.601 -2.57605,2.601 l -14.08465,0 c -1.41198,0 -2.57606,-1.1755 -2.57606,-2.601 l 0,-48.8047 c 0.009,-1.4257 1.15449,-2.5672 2.57606,-2.5672 l 3.21169,0 0,-3.8505 z"
       id="path5835"
       inkscape:connector-curvature="0"
       sodipodi:nodetypes="ccsssssscsccc" /><path
       inkscape:connector-curvature="0"
       style="fill:#ffff00;stroke:#ffff00;stroke-width:2.84042668;stroke-miterlimit:4;stroke-dasharray:none"
       id="path5594"
       d="m 545.59897,-1236.5312 0,3.8524 -3.18181,0 c -1.42157,0 -2.5813,1.163 -2.5813,2.5884 l 0,29.5265 c 0,1.4159 1.15973,2.5885 2.5813,2.5885 l 14.07769,0 c 1.41196,0 2.58141,-1.163 2.58141,-2.5885 l 0,-29.5265 c -0.009,-1.4254 -1.15982,-2.5884 -2.58141,-2.5884 l -3.2117,0 0,-3.8524 -7.68418,0 z" /><path
       style="fill:#ff0000"
       d="m 545.58988,-1236.5304 0,3.8507 -3.17824,0 c -1.42157,0 -2.57606,1.1414 -2.57606,2.567 l 0,29.5548 c 0,1.4159 1.15449,2.567 2.57606,2.567 l 14.08466,0 c 1.41196,0 2.57606,-1.1415 2.57606,-2.567 l 0,-29.5548 c -0.009,-1.4256 -1.1545,-2.567 -2.57606,-2.567 l -3.21172,0 0,-3.8507 -7.6947,0 z"
       id="path5810"
       inkscape:connector-curvature="0" /><path
       d="m 519.78758,-1236.5312 0,3.8524 -3.18182,0 c -1.42158,0 -2.58131,1.163 -2.58131,2.5884 l 0,29.5265 c 0,1.4159 1.15973,2.5885 2.58131,2.5885 l 14.07768,0 c 1.41198,0 2.58141,-1.163 2.58141,-2.5885 l 0,-29.5265 c -0.009,-1.4254 -1.15983,-2.5884 -2.58141,-2.5884 l -3.21169,0 0,-3.8524 -7.68417,0 z"
       id="path5600"
       style="fill:#ffff00;stroke:#ffff00;stroke-width:2.84042668;stroke-miterlimit:4;stroke-dasharray:none"
       inkscape:connector-curvature="0" /><path
       style="fill:#ff0000"
       d="m 519.79586,-1236.5304 0,3.8507 -3.21169,0 c -1.42156,0 -2.54261,1.1414 -2.54261,2.567 l 0,29.5548 c 0,1.4159 1.12105,2.567 2.54261,2.567 l 14.11812,0 c 1.41197,0 2.54259,-1.1415 2.54259,-2.567 l 0,-29.5548 c -0.009,-1.4256 -1.15447,-2.567 -2.57605,-2.567 l -3.17826,0 0,-3.8507 -7.69471,0 z"
       id="path5815"
       inkscape:connector-curvature="0" /><path
       d="m 571.41041,-1236.5312 0,3.8524 -3.18185,0 c -1.42156,0 -2.5813,1.163 -2.5813,2.5884 l 0,29.5265 c 0,1.4159 1.15974,2.5885 2.5813,2.5885 l 14.07769,0 c 1.41197,0 2.5814,-1.163 2.5814,-2.5885 l 0,-29.5265 c -0.009,-1.4254 -1.15984,-2.5884 -2.5814,-2.5884 l -3.21169,0 0,-3.8524 -7.68415,0 z"
       id="path5606"
       style="fill:#ffff00;stroke:#ffff00;stroke-width:2.84042668;stroke-miterlimit:4;stroke-dasharray:none"
       inkscape:connector-curvature="0" /><path
       style="fill:#ff0000"
       d="m 571.41736,-1236.5304 0,3.8507 -3.2117,0 c -1.42157,0 -2.54263,1.1414 -2.54263,2.567 l 0,29.5548 c 0,1.4159 1.12106,2.567 2.54263,2.567 l 14.11811,0 c 1.41196,0 2.54259,-1.1415 2.54259,-2.567 l 0,-29.5548 c -0.009,-1.4256 -1.15448,-2.567 -2.57606,-2.567 l -3.17824,0 0,-3.8507 -7.6947,0 z"
       id="path5805"
       inkscape:connector-curvature="0" /><path
       inkscape:connector-curvature="0"
       style="fill:#ffff00;stroke:#ffff00;stroke-width:2.84042668;stroke-miterlimit:4;stroke-dasharray:none"
       id="path5612"
       d="m 597.2218,-1236.5312 0,3.8524 -3.18183,0 c -1.42157,0 -2.5813,1.163 -2.5813,2.5884 l 0,29.5265 c 0,1.4159 1.15973,2.5885 2.5813,2.5885 l 14.07769,0 c 1.41197,0 2.58141,-1.163 2.58141,-2.5885 l 0,-29.5265 c -0.009,-1.4254 -1.15983,-2.5884 -2.58141,-2.5884 l -3.2117,0 0,-3.8524 -7.68416,0 z" /><path
       style="fill:#ff0000"
       d="m 597.21135,-1236.5304 0,3.8507 -3.17825,0 c -1.42156,0 -2.57607,1.1414 -2.57607,2.567 l 0,29.5548 c 0,1.4159 1.15451,2.567 2.57607,2.567 l 14.08468,0 c 1.41196,0 2.57607,-1.1415 2.57607,-2.567 l 0,-29.5548 c -0.009,-1.4256 -1.15451,-2.567 -2.57607,-2.567 l -3.21173,0 0,-3.8507 -7.6947,0 z"
       id="path5800"
       inkscape:connector-curvature="0" /><path
       d="m 538.07555,-1227.8992 0,3.8527 -3.18182,0 c -1.42156,0 -2.58128,1.1627 -2.58128,2.5882 l 0,29.5265 c 0,1.4159 1.15972,2.5884 2.58128,2.5884 l 14.0777,0 c 1.41196,0 2.5814,-1.163 2.5814,-2.5884 l 0,-29.5265 c -0.009,-1.4255 -1.15984,-2.5882 -2.5814,-2.5882 l -3.21169,0 0,-3.8527 -7.68419,0 z"
       id="path5619"
       style="fill:#ffff00;stroke:#ffff00;stroke-width:2.84042668;stroke-miterlimit:4;stroke-dasharray:none"
       inkscape:connector-curvature="0" /><path
       style="fill:#ff0000"
       d="m 548.96399,-1224.038 h -3.19853 v -3.8526 h -7.68418 v 3.8526 h -3.19851 c -1.42159,0 -2.56463,1.1462 -2.56463,2.5716 v 29.5397 c 0,1.4155 1.14304,2.5713 2.56463,2.5713 h 14.09083 c 1.41196,0 2.56457,-1.1461 2.56457,-2.5713 v -29.5397 c -0.009,-1.4254 -1.15261,-2.5716 -2.57418,-2.5716 z"
       id="path5854"
       inkscape:connector-curvature="0" /><path
       style="fill:#ffff00"
       d="m 540.38654,-1199.3947 v -8.4756 h -3.07367 l 6.14734,-11.5579 v 8.4758 h 3.07365 l -6.14732,11.5577 z"
       id="path5621"
       inkscape:connector-curvature="0" /><path
       inkscape:connector-curvature="0"
       style="fill:#ffff00;stroke:#ffff00;stroke-width:2.84042668;stroke-miterlimit:4;stroke-dasharray:none"
       id="path5625"
       d="m 512.26417,-1227.8992 0,3.8527 -3.18181,0 c -1.42161,0 -2.58132,1.1627 -2.58132,2.5882 l 0,29.5265 c 0,1.4159 1.15971,2.5884 2.58132,2.5884 l 14.07766,0 c 1.41196,0 2.58137,-1.163 2.58137,-2.5884 l 0,-29.5265 c -0.009,-1.4255 -1.1598,-2.5882 -2.58137,-2.5882 l -3.2117,0 0,-3.8527 -7.68415,0 z" /><path
       style="fill:#ff0000"
       d="m 523.15259,-1224.038 h -3.19856 v -3.8526 h -7.68414 v 3.8526 h -3.19855 c -1.42157,0 -2.56459,1.1462 -2.56459,2.5716 v 29.5397 c 0,1.4155 1.14302,2.5713 2.56459,2.5713 h 14.09085 c 1.41194,0 2.5646,-1.1461 2.5646,-2.5713 v -29.5397 c -0.009,-1.4254 -1.15266,-2.5716 -2.5742,-2.5716 z"
       id="path5850"
       inkscape:connector-curvature="0" /><path
       style="fill:#ffff00"
       d="m 514.57514,-1199.3947 v -8.4756 h -3.07368 l 6.14734,-11.5579 v 8.4758 h 3.07366 l -6.14732,11.5577 z"
       id="path5627"
       inkscape:connector-curvature="0" /><path
       inkscape:connector-curvature="0"
       style="fill:#ffff00;stroke:#ffff00;stroke-width:2.84042668;stroke-miterlimit:4;stroke-dasharray:none"
       id="path5631"
       d="m 563.88695,-1227.8992 0,3.8527 -3.18181,0 c -1.42158,0 -2.58129,1.1627 -2.58129,2.5882 l 0,29.5265 c 0,1.4159 1.15971,2.5884 2.58129,2.5884 l 14.0777,0 c 1.41195,0 2.58138,-1.163 2.58138,-2.5884 l 0,-29.5265 c -0.009,-1.4255 -1.15983,-2.5882 -2.58138,-2.5882 l -3.21168,0 0,-3.8527 -7.68421,0 z" /><path
       style="fill:#ff0000"
       d="m 574.7754,-1224.038 h -3.19852 v -3.8526 h -7.68419 v 3.8526 h -3.19852 c -1.42156,0 -2.5646,1.1462 -2.5646,2.5716 v 29.5397 c 0,1.4155 1.14304,2.5713 2.5646,2.5713 h 14.09084 c 1.41197,0 2.5646,-1.1461 2.5646,-2.5713 v -29.5397 c -0.009,-1.4254 -1.15263,-2.5716 -2.57421,-2.5716 z"
       id="path5858"
       inkscape:connector-curvature="0" /><path
       style="fill:#ffff00"
       d="m 566.19794,-1199.3947 v -8.4756 h -3.07367 l 6.14734,-11.5579 v 8.4758 h 3.07366 l -6.14733,11.5577 z"
       id="path5633"
       inkscape:connector-curvature="0" /><path
       d="m 589.69837,-1227.8992 0,3.8527 -3.18182,0 c -1.42157,0 -2.58128,1.1627 -2.58128,2.5882 l 0,29.5265 c 0,1.4159 1.15971,2.5884 2.58128,2.5884 l 14.07771,0 c 1.41196,0 2.58137,-1.163 2.58137,-2.5884 l 0,-29.5265 c -0.009,-1.4255 -1.15982,-2.5882 -2.58137,-2.5882 l -3.21172,0 0,-3.8527 -7.68417,0 z"
       id="path5637"
       style="fill:#ffff00;stroke:#ffff00;stroke-width:2.84042668;stroke-miterlimit:4;stroke-dasharray:none"
       inkscape:connector-curvature="0" /><path
       style="fill:#ff0000"
       d="m 600.58679,-1224.038 h -3.19853 v -3.8526 h -7.68414 v 3.8526 h -3.19856 c -1.42156,0 -2.56459,1.1462 -2.56459,2.5716 v 29.5397 c 0,1.4155 1.14303,2.5713 2.56459,2.5713 h 14.09084 c 1.41198,0 2.5646,-1.1461 2.5646,-2.5713 v -29.5397 c -0.009,-1.4254 -1.15262,-2.5716 -2.57421,-2.5716 z"
       id="path5846"
       inkscape:connector-curvature="0" /><path
       style="fill:#ffff00"
       d="m 592.00936,-1199.3947 v -8.4756 h -3.07369 l 6.14735,-11.5579 v 8.4758 h 3.07366 l -6.14732,11.5577 z"
       id="path5639"
       inkscape:connector-curvature="0" /><path
       inkscape:connector-curvature="0"
       d="m 647.57781,-1342.295 c -1.18279,-5.9861 -6.46182,-10.5018 -12.79319,-10.5018 -5.02682,0 -9.38399,2.8539 -11.56691,7.0214 -5.22685,0.5656 -9.30571,4.9942 -9.30571,10.3799 0,5.7685 4.67025,10.4408 10.43631,10.4408 h 22.612 c 4.80072,0 8.69693,-3.8979 8.69693,-8.7006 0,-4.594 -3.57443,-8.3179 -8.07943,-8.6397 z"
       id="path5641"
       style="fill:#ffff00;display:inline" /></g></g><g
   style="display:inline"
   inkscape:label="ICONS_W"
   id="g7363"
   inkscape:groupmode="layer"><path
     d="m 197.12223,81.5492 h 3.38585 v -3.3858 h -3.38585 v 3.3858 z"
     id="path5440"
     style="fill:#ffff00;stroke:#ffff00;stroke-width:1.98071086;stroke-miterlimit:4;stroke-dasharray:none"
     inkscape:connector-curvature="0" /><path
     d="m 203.89393,85.3995 h 3.38583 v -3.3859 h -3.38583 v 3.3859 z"
     id="path5442"
     style="fill:#ffff00;stroke:#ffff00;stroke-width:1.98071086;stroke-miterlimit:4;stroke-dasharray:none"
     inkscape:connector-curvature="0" /><path
     d="M 205.58684,65.1179 H 192.04346 V 44.8024 h 13.54338 v 20.3155 z"
     id="path5444"
     style="fill:#ffff00;stroke:#ffff00;stroke-width:0.66023695"
     inkscape:connector-curvature="0" /></g><g
   inkscape:groupmode="layer"
   id="g7157"
   inkscape:label="ICONS_S"
   style="display:inline"><path
     style="fill:#ff0000;stroke:none"
     inkscape:connector-curvature="0"
     d="m 205.58684,35.1598 -13.54338,-0.017 c -1.87068,0 -3.38583,1.5152 -3.38583,3.3861 l 0,27.0873 c 0,1.8708 1.51515,3.386 3.38583,3.386 l 13.54338,0 c 1.87068,0 3.38584,-1.5152 3.38584,-3.386 l 0,-27.0873 c 0,-1.8709 -1.51516,-3.369 -3.38584,-3.369 z m 0,27.0706 -13.54338,0 0,-20.3157 13.54338,0 z"
     id="path5446"
     sodipodi:nodetypes="ccssssssccccccc" /></g><g
   inkscape:groupmode="layer"
   id="layer10"
   inkscape:label="BREAK"
   style="display:inline"><path
     sodipodi:nodetypes="ccccccccccccccc"
     inkscape:connector-curvature="0"
     id="path5448"
     d="m 172.55463,105.3656 10.35592,-24.732 11.07394,-0.9242 2.83259,-7.3214 8.25328,2.7103 7.4124,-12.4655 4.03998,-4.1845 -9.7767,2.3613 -3.22738,-6.3082 6.83907,-4.1181 -3.8669,-4.0824 13.03307,-6.0222 -8.93679,59.035 2.43833,6.2931 z"
     style="fill:#000000;stroke:none;display:inline" /><path
     inkscape:connector-curvature="0"
     id="path5450"
     d="m 325.88944,114.9302 -13.20106,7.2259 -3.66628,-5.5962 -4.89454,0.1353 -0.55819,-5.5684 -5.22404,-1.4431 -4.47485,1.5116 -3.85272,-8.1838 -6.68448,-3.5844 3.87406,-17.3191 33.66359,2.0943 z"
     style="fill:#000000;stroke:none;display:inline"
     sodipodi:nodetypes="cccccccccccc" /><path
     style="fill:#ff0000;stroke:none;display:inline"
     inkscape:connector-curvature="0"
     d="m 197.12222,73.8085 v 9.4552 h -5.92521 l 7.61815,7.6184 7.61813,-7.6184 h -5.92522 v -9.4552 h -3.38585 z m -8.46459,15.2368 c 0,5.6037 4.55396,10.1576 10.15753,10.1576 5.60358,0 10.15752,-4.5539 10.15752,-10.1576 h -3.38584 c 0,3.7414 -3.03035,6.7718 -6.77168,6.7718 -3.74137,0 -6.7717,-3.0304 -6.7717,-6.7718 h -3.38583 z"
     id="path5452" /><path
     style="fill:#ff0000;display:inline"
     inkscape:connector-curvature="0"
     d="M 324.48943,103.9511 307.6936,114.294 c -2.54838,1.5695 -5.9179,0.7691 -7.48776,-1.7788 l -5.20926,-8.4537 c -0.7707,-1.2505 -1.00044,-2.7384 -0.6553,-4.1492 l 3.64176,-14.7826 c 0,0 2.32391,0.5818 2.37562,0.6138 0.37719,0.1184 0.68556,0.3605 0.8996,0.708 0.15701,0.2549 0.23023,0.5293 0.24287,0.8089 0.0167,0.053 0.22605,6.746 0.22605,6.746 l 13.79583,-8.4956 c 0.96139,-0.5922 2.21554,-0.2939 2.80783,0.6671 0.59235,0.9612 0.29432,2.2149 -0.66706,2.807 l -8.10837,4.9931 0.71359,1.1582 11.0042,-6.7766 c 0.96142,-0.5919 2.2156,-0.2939 2.80786,0.6672 0.5923,0.9612 0.29433,2.2148 -0.66709,2.8068 l -11.00416,6.7766 0.7136,1.1581 9.84582,-6.0632 c 0.96144,-0.5923 2.21559,-0.294 2.80795,0.6671 0.59226,0.9612 0.29429,2.2149 -0.66716,2.807 l -9.84584,6.063 0.71356,1.1581 6.37092,-3.9233 c 0.96139,-0.5921 2.21557,-0.294 2.80783,0.6671 0.59236,0.9612 0.29438,2.2149 -0.66706,2.807 z"
     id="path5506" /></g><g
   inkscape:groupmode="layer"
   id="layer5"
   inkscape:label="XX_COVER"
   style="display:inline"
   sodipodi:insensitive="true"><path
     inkscape:connector-curvature="0"
     id="path5250"
     d="m -170.02779,169.9875 1290.05559,0 0,170 -1290.05559,0 z"
     style="color:#000000;fill:#ececec;fill-opacity:1;stroke:none;stroke-width:4;marker:none;visibility:visible;display:inline;overflow:visible;enable-background:accumulate" /><path
     style="color:#000000;fill:#ececec;fill-opacity:1;stroke:none;stroke-width:4;marker:none;visibility:visible;display:inline;overflow:visible;enable-background:accumulate"
     d="m -170.02779,-170.0125 1290.05559,0 0,170 -1290.05559,0 z"
     id="path5901"
     inkscape:connector-curvature="0" /><path
     inkscape:connector-curvature="0"
     id="path5903"
     d="m -170.02779,-170.0125 170.05559,0 0,510 -170.05559,0 z"
     style="color:#000000;fill:#ececec;fill-opacity:1;stroke:none;stroke-width:4;marker:none;visibility:visible;display:inline;overflow:visible;enable-background:accumulate"
     sodipodi:nodetypes="ccccc" /><path
     sodipodi:nodetypes="ccccc"
     style="color:#000000;fill:#ececec;fill-opacity:1;stroke:none;stroke-width:4;marker:none;visibility:visible;display:inline;overflow:visible;enable-background:accumulate"
     d="m 949.97221,-170.0125 170.05559,0 0,510 -170.05559,0 z"
     id="path5905"
     inkscape:connector-curvature="0" /></g>
</svg>