<?xml version="1.0" encoding="UTF-8" standalone="no"?>
<!-- Created with Inkscape (http://www.inkscape.org/) -->

<svg
   xmlns:dc="http://purl.org/dc/elements/1.1/"
   xmlns:cc="http://creativecommons.org/ns#"
   xmlns:rdf="http://www.w3.org/1999/02/22-rdf-syntax-ns#"
   xmlns:svg="http://www.w3.org/2000/svg"
   xmlns="http://www.w3.org/2000/svg"
   xmlns:sodipodi="http://sodipodi.sourceforge.net/DTD/sodipodi-0.dtd"
   xmlns:inkscape="http://www.inkscape.org/namespaces/inkscape"
   id="svg2"
   version="1.1"
   inkscape:version="0.48.3.1 r9886"
   width="255.11749"
   height="255.11749"
   xml:space="preserve"
   sodipodi:docname="160405_STICKER.svg"><metadata
   id="metadata8"><rdf:RDF><cc:Work
       rdf:about=""><dc:format>image/svg+xml</dc:format><dc:type
         rdf:resource="http://purl.org/dc/dcmitype/StillImage" /><dc:title /></cc:Work></rdf:RDF></metadata><defs
   id="defs6" /><sodipodi:namedview
   pagecolor="#f0f0f0"
   bordercolor="#666666"
   borderopacity="1"
   objecttolerance="10"
   gridtolerance="10"
   guidetolerance="10"
   inkscape:pageopacity="1"
   inkscape:pageshadow="2"
   inkscape:window-width="640"
   inkscape:window-height="480"
   id="namedview4"
   showgrid="false"
   inkscape:zoom="1.4622694"
   inkscape:cx="112.42998"
   inkscape:cy="162.63456"
   inkscape:current-layer="layer5"
   showguides="false"
   inkscape:guide-bbox="true"><sodipodi:guide
     position="10.629921,10.629921"
     orientation="0,1488.189"
     id="guide3241" /><sodipodi:guide
     position="1498.8189,10.629921"
     orientation="-2104.7244,0"
     id="guide3243" /><sodipodi:guide
     position="1498.8189,2115.3543"
     orientation="0,-1488.189"
     id="guide3245" /><sodipodi:guide
     position="10.629921,2115.3543"
     orientation="2104.7244,0"
     id="guide3247" /><sodipodi:guide
     position="10.629921,10.629921"
     orientation="1.0480505e-13,6.2172489e-14"
     id="guide3249" /></sodipodi:namedview>
<g
   inkscape:groupmode="layer"
   id="layer2"
   inkscape:label="BG"
   style="display:inline"><path
     d="m 127.5588,278.5745 c 83.2723,0 151.0193,-67.747 151.0193,-151.0193 0,-83.272342 -67.747,-151.020742 -151.0193,-151.020742 -83.2723,0 -151.0193,67.7484 -151.0193,151.020742 0,83.2723 67.747,151.0193 151.0193,151.0193 z"
     style="fill:#000000;stroke:none"
     id="path48-1"
     inkscape:connector-curvature="0" /></g><g
   inkscape:groupmode="layer"
   id="layer4"
   inkscape:label="SCENARIO"
   style="display:inline"><text
   transform="scale(0.99913196,1.0008688)"
   sodipodi:linespacing="141%"
   id="text6277"
   y="142.3044"
   x="18.245964"
   style="font-size:53.44522095px;font-style:normal;font-variant:normal;font-weight:800;font-stretch:normal;text-align:start;line-height:140.99999666%;letter-spacing:0px;word-spacing:0px;writing-mode:lr-tb;text-anchor:start;fill:#ffffff;fill-opacity:1;stroke:none;display:inline;font-family:Crickx;-inkscape-font-specification:Crickx Ultra-Bold"
   xml:space="preserve"><tspan
     y="142.3044"
     x="18.245964"
     id="tspan6279"
     sodipodi:role="line">W<tspan
   style="font-size:53.44522095px;font-style:normal;font-variant:normal;font-weight:800;font-stretch:normal;text-align:start;line-height:140.99999666%;writing-mode:lr-tb;text-anchor:start;fill:#ffffff;font-family:Crickx;-inkscape-font-specification:Crickx Ultra-Bold"
   id="tspan6281">A</tspan>STE(<tspan
   id="tspan6283"
   style="font-size:53.44522095px;font-style:normal;font-variant:normal;font-weight:800;font-stretch:normal;text-align:start;line-height:140.99999666%;writing-mode:lr-tb;text-anchor:start;fill:#ffffff;font-family:Crickx;-inkscape-font-specification:Crickx Ultra-Bold">D</tspan>)!</tspan></text>


<g
   id="g5782"
   transform="matrix(-0.8572026,0.51497931,-0.51497931,-0.8572026,31.3382,2558.1454)"><path
     sodipodi:nodetypes="scccccccscccs"
     inkscape:connector-curvature="0"
     style="fill:#ffff00;stroke:none"
     id="path5441"
     d="m -1285.8899,2029.3202 -0.046,-0.3292 c 0,1.7601 -1.4443,3.1963 -3.1995,3.1918 l 6.3825,0.014 c 0,1.7601 -1.4443,3.1961 -3.1995,3.1917 l -31.9127,-0.083 c -1.7552,0 -3.1875,-1.4482 -3.1831,-3.2082 l 6.3826,0.015 c -1.7552,0 -3.1923,-1.4481 -3.183,-3.2083 l 0.046,-8.6351 c 0,-1.76 1.4443,-3.1963 3.1995,-3.1918 l 26.4078,9.0324 c 0.8776,0 2.546,4.953 2.3054,3.2095 z" /><path
     d="m -1289.0729,2008.1832 c 1.7552,0 3.1875,1.4481 3.183,3.2082 l -0.046,17.5996 c 0,1.76 -1.4443,3.1963 -3.1995,3.1918 l 6.3825,0.014 c 0,1.7601 -1.4443,3.1962 -3.1995,3.1917 l -31.9127,-0.083 c -1.7552,0 -3.1876,-1.4482 -3.1831,-3.2082 l 6.3826,0.014 c -1.7552,0 -3.1876,-1.4481 -3.183,-3.2082 l 0.046,-17.5996 c 0,-1.76 1.4443,-3.1963 3.1995,-3.1918 l 25.5302,0.066 z"
     id="path5459"
     style="fill:none;stroke:#ffff00;stroke-width:1.68906271;stroke-miterlimit:4;stroke-dasharray:none"
     inkscape:connector-curvature="0" /><path
     style="fill:#ff0000;display:inline"
     inkscape:connector-curvature="0"
     d="m -1314.673,2032.1179 c -1.7552,0 -3.1716,-1.4482 -3.1672,-3.2081 l 0.03,-17.5998 c 0,-1.76 1.4444,-3.1962 3.1996,-3.1916 l 25.5302,0.066 c 1.7552,0 3.1876,1.4483 3.183,3.2083 l -0.045,17.5997 c 0,1.7601 -1.4444,3.1963 -3.1996,3.1918 l 6.3826,0.014 c 0,1.7598 -1.4444,3.196 -3.1996,3.1916 l -31.9128,-0.084 c -1.7552,0 -3.1875,-1.4485 -3.1829,-3.2084 l 6.3825,0.015 z m 25.5838,-20.7334 -25.5302,-0.066 -0.046,17.5997 25.5302,0.067 0.046,-17.5997 z m -12.8229,22.3664 c 0.8776,0 1.5975,-0.7157 1.5997,-1.5959 0,-0.8799 -0.7139,-1.6017 -1.5914,-1.6039 -0.8777,0 -1.5976,0.716 -1.5998,1.5959 0,0.88 0.7139,1.6018 1.5915,1.6039 z"
     id="path5461" /></g><path
   inkscape:connector-curvature="0"
   id="path5471"
   d="m 125.336,169.763 c 0,9.7713 31.6781,17.6931 70.7551,17.6931 39.0769,0 70.7551,-7.9218 70.7551,-17.6931 0,-9.7712 -31.6782,-17.6923 -70.7551,-17.6923 -39.077,0 -70.7551,7.9211 -70.7551,17.6923 z"
   style="color:#000000;fill:#ffff00;fill-opacity:1;fill-rule:nonzero;stroke:none;stroke-width:1;marker:none;visibility:visible;display:inline;overflow:visible;enable-background:accumulate" /><path
   d="m 132.7917,152.7872 c -1.2402,-0.5602 -1.7912,-2.0187 -1.2311,-3.2594 l 5.0681,-11.2267 c 0.5601,-1.2407 2.0181,-1.7918 3.2583,-1.2314 l -4.4893,-2.0279 1.0136,-2.2452 26.9362,12.167 -1.0136,2.2456 -4.4893,-2.028 c 1.2402,0.56 1.791,2.0185 1.2309,3.2592 l -5.068,11.2268 c -0.56,1.2408 -2.0181,1.7918 -3.2584,1.2316 l -17.9574,-8.1116 z"
   id="path5475"
   style="fill:#ffff00;stroke:#ffff00;stroke-width:1.68906271;stroke-miterlimit:4;stroke-dasharray:none;display:inline"
   inkscape:connector-curvature="0" /><path
   inkscape:connector-curvature="0"
   style="fill:#ffff00;stroke:#ffff00;stroke-width:1.68900001;stroke-miterlimit:4;stroke-dasharray:none;display:inline"
   id="path5505"
   d="m 136.7086,149.8512 c 1.5431,0.01 2.7975,1.2782 2.7877,2.819 l -0.098,15.4095 c -0.01,1.5412 -1.2802,2.794 -2.8231,2.7843 l 5.6108,0.033 c -0.01,1.5409 -1.2802,2.7939 -2.8232,2.7843 l -28.0543,-0.1749 c -1.5429,-0.012 -2.7973,-1.2784 -2.7877,-2.8192 l 5.611,0.034 c -1.5431,-0.01 -2.7976,-1.278 -2.7877,-2.8191 l 0.098,-15.4095 c 0.01,-1.5409 1.2803,-2.7937 2.8232,-2.784 l 22.4434,0.1398 z" /><path
   inkscape:connector-curvature="0"
   d="m 150.8522,143.1834 c 1.2402,0.5602 1.7799,2.0137 1.2199,3.2542 l -5.0569,11.232 c -0.56,1.2406 -2.0181,1.7916 -3.2584,1.2314 l -17.9575,-8.1113 c -1.2401,-0.5603 -1.7911,-2.0189 -1.231,-3.2595 l 5.068,-11.2269 c 0.5602,-1.2407 2.0182,-1.7914 3.2584,-1.2314 l -4.4893,-2.0277 1.0135,-2.2456 26.9364,12.1672 -1.0138,2.2455 -4.4893,-2.0279 z m -24.0393,5.3607 17.9576,8.1115 5.0681,-11.2267 -17.9575,-8.1116 -5.0682,11.2268 z"
   id="path5477"
   style="fill:#ff0000;display:inline" /><path
   style="fill:#000000;stroke:none;display:inline"
   d="m 138.1438,152.4115 -1.0465,10.5468 -3.5051,-3.3259 -5.1987,0.5549 -2.1822,-4.5612 -4.1079,-0.5536 0.7925,-3.2167 10.1393,-0.3119 z"
   id="path5521"
   inkscape:connector-curvature="0"
   sodipodi:nodetypes="ccccccccc" /><path
   d="m 179.026,146.7151 c 1.9972,-0.2263 3.8165,1.2229 4.0429,3.2207 l 2.2635,19.9783 c 0.2263,1.9979 -1.2226,3.8176 -3.2197,4.0441 l 7.2625,-0.8232 c 0.2264,1.9976 -1.2225,3.8174 -3.2197,4.044 l -36.313,4.1168 c -1.9973,0.2263 -3.8165,-1.2229 -4.0429,-3.2208 l 7.2627,-0.8234 c -1.9973,0.2263 -3.8166,-1.2229 -4.0429,-3.2206 l -2.2636,-19.9782 c -0.2264,-1.998 1.2226,-3.8179 3.2198,-4.0442 l 29.0504,-3.2935 z"
   id="path5479"
   style="fill:#ffff00;stroke:#ffff00;stroke-width:1.98071063;stroke-miterlimit:4;stroke-dasharray:none"
   inkscape:connector-curvature="0" /><path
   sodipodi:nodetypes="cccccccccccccccc"
   inkscape:connector-curvature="0"
   id="path5487"
   d="m 187.5762,135.4336 8.714,12.3062 -9.2367,4.157 -3.5779,-7.6641 -7.8216,-1.622 -0.2661,9.3337 -5.9674,2.2847 -7.2928,0.6475 -3.0011,5.4986 -9.147,-13.1807 5.3226,-2.9235 -2.0709,-6.4914 -6.0483,-2.3566 6.7309,-8.5904 -0.5332,-11.3923 z"
   style="fill:#000000;stroke:none;display:inline" /><path
   inkscape:connector-curvature="0"
   id="path5469"
   d="m 184.3971,100.9673 -0.3781,0.3013 -0.5953,0.4762 -0.2801,0.2244 0.1611,0.315 c 0,0 1.4285,2.8832 3.3473,6.1225 0.8896,1.5072 1.2831,3.6379 1.4288,5.3802 0.085,1.0155 0.087,1.7831 0.077,2.3399 l -8.7818,-5.3381 -0.6723,-0.4133 0,0.7845 0,1.3172 0,0.2171 0.168,0.1264 c 0,0 6.9255,5.4981 8.7119,6.9279 0.7213,0.5775 1.3845,2.1365 1.7788,3.5379 0.1927,0.6846 0.3267,1.3144 0.4202,1.7931 -0.5213,-0.251 -1.2992,-0.6216 -2.6893,-1.2817 -1.792,-0.8517 -3.6395,-1.7276 -4.2089,-1.9409 -0.3169,-0.1201 -0.5686,-0.033 -0.8403,0.065 -0.2716,0.097 -0.5685,0.2437 -0.8894,0.4273 -0.6414,0.3676 -1.3776,0.8809 -2.0869,1.4014 -1.4185,1.0402 -2.7101,2.1224 -2.7101,2.1224 l 0.3851,0.7637 c 0,0 0.9523,-0.2378 1.6947,-0.4834 0.01,0 0.01,0 0.015,0 1.8438,-0.5376 3.0745,0.3011 3.0745,0.3011 l 0.015,0.013 0.021,0.013 9.195,5.0019 -0.3431,18.0024 -10.1055,5.1975 0.2661,0.8198 11.457,-1.7022 3.0954,3.5237 0.3713,0.315 0.273,-0.3991 2.276,-4.2033 11.9952,0.8001 1.3937,-0.1962 -1.2607,-0.6303 -10.1463,-6.1453 0,-12.118 c 0.1638,-0.1877 4.8168,-5.522 5.9736,-6.795 0.4774,-0.526 1.45,-0.8934 2.3041,-1.0789 0.854,-0.1849 1.5616,-0.2101 1.5616,-0.2101 l 0.2312,-0.013 0.119,-0.189 6.3308,-9.7794 -0.7004,-0.5394 c 0,0 -4.0961,4.5553 -5.6864,5.9194 -1.4952,1.2823 -3.7335,1.0883 -5.5885,1.2119 l -0.028,0 -0.028,0.013 c -0.5982,0.119 -1.1978,0.5183 -1.8418,1.0228 -0.644,0.5046 -1.3138,1.1248 -1.9258,1.7375 -0.2285,0.2283 -0.2057,0.2302 -0.4132,0.4481 0.3723,-0.8661 0.4223,-1.0304 1.0856,-2.4799 1.3431,-2.9359 0.9842,-4.3375 0.6301,-6.3467 -0.017,-0.097 0.019,-0.4242 0.1752,-0.8406 0.1557,-0.4164 0.4062,-0.9312 0.7212,-1.4991 0.6301,-1.1357 1.5187,-2.484 2.4161,-3.7688 1.7949,-2.5695 3.6346,-4.8898 3.6346,-4.8898 l 0.098,-0.1261 0,-0.1539 0,-0.9527 0,-1.1838 -0.7773,0.8967 -6.8912,7.9719 -1.1764,-8.7004 -0.056,-0.3853 -0.3851,0 -0.8335,0 -0.4622,0 0.022,0.4621 c 0,0 0.091,2.2085 0.21,4.6586 0.1194,2.4501 0.259,5.1114 0.3852,6.1226 0.2208,1.7701 0.127,4.2606 0.1191,4.4622 l -4.041,5.8071 c -0.1849,-0.6949 -0.659,-2.494 -1.4077,-5.2117 -0.8806,-3.197 -1.8472,-6.6139 -2.297,-7.7688 -0.1673,-0.4298 -0.2606,-1.2438 -0.2661,-2.1716 -0.01,-0.9276 0.064,-1.9796 0.161,-2.9703 0.1922,-1.9809 0.4903,-3.6987 0.4903,-3.6987 l 0.112,-0.6723 -0.6582,0.168 -0.9525,0.2381 -0.2381,0.056 -0.077,0.2381 -1.2677,4.007 -4.1458,-6.3749 -0.2661,-0.4062 z"
   style="fill:#ff0000"
   sodipodi:nodetypes="cccccccccccccccccccsccccccccccccccccccccccccccccccsccccccccccscccccccccccccccccsccccccccccccc" /><path
   inkscape:connector-curvature="0"
   d="m 153.0532,177.2544 c -1.9971,0.2264 -3.7983,-1.2251 -4.0246,-3.2229 l -2.2817,-19.9762 c -0.2264,-1.9977 1.2225,-3.8176 3.2197,-4.044 l 29.0504,-3.2934 c 1.9972,-0.2265 3.8166,1.2229 4.0429,3.2208 l 2.2636,19.9782 c 0.2264,1.9978 -1.2226,3.8176 -3.2198,4.0441 l 7.2626,-0.8234 c 0.2263,1.9978 -1.2225,3.8177 -3.2198,4.044 l -36.3129,4.1169 c -1.9973,0.2265 -3.8166,-1.2229 -4.0429,-3.2209 l 7.2625,-0.8232 z m 26.3754,-26.9042 -29.0504,3.2936 2.2635,19.9783 29.0504,-3.2936 -2.2635,-19.9783 z m -11.6444,27.0736 c 0.9987,-0.1131 1.7232,-1.0232 1.6099,-2.0219 -0.1131,-0.999 -1.0227,-1.7236 -2.0214,-1.6104 -0.9986,0.1131 -1.7231,1.0231 -1.6099,2.0219 0.1132,0.999 1.0229,1.7237 2.0214,1.6104 z"
   id="path5481"
   style="fill:#ff0000" /><path
   sodipodi:nodetypes="csccccccccccc"
   inkscape:connector-curvature="0"
   id="path5483"
   d="m 125.336,169.763 c 0,9.7713 31.6781,17.6931 70.7551,17.6931 39.0769,0 70.7551,-7.9218 70.7551,-17.6931 l 13.9778,14.7256 -5.5367,79.1199 -9.9382,-8.9079 -7.1878,0.693 -3.1711,-14.3787 -5.383,4.6245 -7.4802,-12.308 -45.6334,-33.0316 -73.6467,19.4735 z"
   style="color:#000000;fill:#000000;stroke:none;stroke-width:1;marker:none;visibility:visible;display:inline;overflow:visible;enable-background:accumulate" /><path
   d="m 142.186,170.897 c -0.01,1.5409 -1.2802,2.7939 -2.8232,2.7843 l -28.0543,-0.1749"
   id="path5814"
   style="fill:none;stroke:#ffff00;stroke-width:1.68900001;stroke-miterlimit:4;stroke-dasharray:none;display:inline"
   inkscape:connector-curvature="0"
   sodipodi:nodetypes="ccc" /><path
   id="path5523"
   d="m 114.132,170.6601 c -1.5431,-0.01 -2.7835,-1.269 -2.7738,-2.799 l 0.084,-15.3001 c 0.01,-1.53 1.2803,-2.7739 2.8234,-2.7644 l 22.4436,0.1388 c 1.543,0.01 2.7974,1.2691 2.7877,2.7992 l -0.098,15.2999 c -0.01,1.53 -1.2802,2.7741 -2.8233,2.7644 l 5.611,0.033 c -0.01,1.5301 -1.2802,2.7739 -2.8232,2.7644 l -28.0545,-0.1734 c -1.5431,-0.01 -2.7975,-1.2694 -2.7878,-2.7994 l 5.6109,0.032 z m 22.559,-17.9428 -22.4436,-0.1389 -0.098,15.2999 22.4437,0.1389 0.098,-15.2999 z"
   inkscape:connector-curvature="0"
   style="fill:#ff0000;stroke:none;display:inline"
   sodipodi:nodetypes="cccccccccccccccccccc" /><path
   style="color:#000000;fill:#ffff00;stroke:none;stroke-width:3.30118442;marker:none;visibility:visible;display:inline;overflow:visible;enable-background:accumulate"
   d="m 125.3361,169.7632 c 0,9.7712 31.6779,17.6929 70.755,17.6929 39.077,0 70.7551,-7.9217 70.7551,-17.6929"
   id="path5485"
   inkscape:connector-curvature="0"
   sodipodi:nodetypes="csc" /><path
   d="m 113.8256,138.9334 -4.1025,-18.0161 -2.4015,0.5472 -0.547,-2.4023 28.8171,-6.5662 0.547,2.4022 -2.4014,0.5472 4.1026,18.0161 -24.0143,5.4719 z"
   id="path5443"
   style="fill:#000000;stroke:#ffff00;stroke-width:1.68906271;stroke-miterlimit:4;stroke-dasharray:none;display:inline"
   inkscape:connector-curvature="0" /><path
   inkscape:connector-curvature="0"
   d="m 133.7303,115.4495 4.1026,18.0162 -24.0142,5.4718 -4.1026,-18.0161 -2.4015,0.5471 -0.547,-2.402 28.8171,-6.5664 0.547,2.4023 -2.4014,0.5471 z m -9.6057,2.1888 -4.8028,1.0942 0.2734,1.2012 4.8029,-1.0945 -0.2735,-1.2009 z m 8.0248,1.9615 -19.2114,4.3777 2.7351,12.0108 19.2114,-4.3776 -2.7351,-12.0109 z"
   id="path5447"
   style="fill:#ff0000;display:inline" /><g
   id="g5816"
   transform="matrix(-0.9759081,0,0,0.9759081,-1365.1282,-1795.5942)"><g
     transform="matrix(-1,0,0,1,-2765.8795,-379)"
     id="g5704"><path
       id="path5533"
       d="m -1335.99,2344.1396 c -1.089,-5.519 -5.9491,-9.6822 -11.7782,-9.6822 -4.6279,0 -8.6394,2.631 -10.6492,6.4734 -4.8121,0.5215 -8.5674,4.6046 -8.5674,9.5701 0,5.3182 4.2997,9.626 9.6083,9.626 h 20.8179 c 4.4199,0 8.007,-3.5938 8.007,-8.0218 0,-4.2355 -3.2909,-7.6687 -7.4384,-7.9655 z"
       inkscape:connector-curvature="0"
       style="fill:#ff0000;display:inline" /><path
       id="path5539"
       d="m -1317.4592,2337.3147 c -0.8917,-4.5198 -4.872,-7.9293 -9.6457,-7.9293 -3.7901,0 -7.0753,2.1547 -8.7212,5.3014 -3.9409,0.4271 -7.0163,3.771 -7.0163,7.8374 0,4.3554 3.5213,7.8833 7.8688,7.8833 h 17.0489 c 3.6196,0 6.5573,-2.9432 6.5573,-6.5694 0,-3.4687 -2.6951,-6.2804 -6.0918,-6.5234 z"
       inkscape:connector-curvature="0"
       style="fill:#ffff00;stroke:none" /><path
       style="fill:#ff0000"
       inkscape:connector-curvature="0"
       d="m -1317.4592,2337.3147 c -0.8917,-4.5198 -4.872,-7.9293 -9.6457,-7.9293 -1.9344,0 -3.7376,0.5715 -5.2589,1.5374 l 1.9147,1.9181 c 1.0033,-0.519 2.1377,-0.8277 3.3442,-0.8277 3.9868,0 7.213,3.2321 7.213,7.2262 v 0.657 h 1.9672 c 2.1704,0 3.9343,1.7671 3.9343,3.9417 0,1.4912 -0.8327,2.7722 -2.0524,3.4423 l 1.9016,1.905 c 1.6721,-1.189 2.7738,-3.1335 2.7738,-5.3473 0,-3.4687 -2.6951,-6.2804 -6.0918,-6.5234 z m -21.4488,-6.2542 3.6065,3.6 c -4.1835,0.1774 -7.5409,3.6264 -7.5409,7.8637 0,4.3554 3.5213,7.8833 7.8688,7.8833 h 15.3768 l 2.6229,2.6277 1.6721,-1.6687 -21.9341,-21.9811 -1.6721,1.6751 z m 6.1966,6.2081 10.4917,10.511 h -12.7539 c -2.8983,0 -5.2458,-2.3519 -5.2458,-5.2554 0,-2.9038 2.3475,-5.2556 5.2458,-5.2556 h 2.2622 z"
       id="path5541" /><path
       inkscape:connector-curvature="0"
       d="m -1294.005,2345.9014 c -0.8918,-4.5197 -4.872,-7.9291 -9.6457,-7.9291 -3.7901,0 -7.0753,2.1547 -8.7212,5.3014 -3.9409,0.4271 -7.0163,3.7709 -7.0163,7.8373 0,4.3554 3.5213,7.8832 7.8688,7.8832 h 17.0489 c 3.6196,0 6.5572,-2.943 6.5572,-6.5694 0,-3.4686 -2.695,-6.2803 -6.0917,-6.5234 z"
       id="path5543"
       style="fill:#ff0000;display:inline" /><path
       style="fill:#ffff00;display:inline"
       id="path5603"
       d="m -1254.766,2301.4022 c -1.2492,-6.3224 -6.8248,-11.0918 -13.5119,-11.0918 -5.3092,0 -9.9111,3.0143 -12.2167,7.4159 -5.5205,0.5974 -9.8285,5.2747 -9.8285,10.963 0,6.0926 4.9326,11.0274 11.0226,11.0274 h 23.8823 c 5.0705,0 9.1856,-4.1169 9.1856,-9.1894 0,-4.8521 -3.7753,-8.7852 -8.5334,-9.1251 z"
       inkscape:connector-curvature="0" /></g></g><g
   transform="matrix(0.5270737,0,0,0.5270737,649.91372,-669.2957)"
   id="g6092"><path
     style="fill:#ffff00;stroke:#ffff00;stroke-width:5.69180393;stroke-miterlimit:4;stroke-dasharray:none;display:inline"
     d="m -1048.492,1642.2338 c -0.8416,0.063 -1.6605,0.4343 -2.2528,1.1266 l -2.6681,3.1423 -3.7946,-3.2609 -6.4033,7.4705 3.7946,3.261 -2.6682,3.0831 c -1.1848,1.3846 -1.0304,3.4766 0.356,4.6838 l 28.9333,24.783 c 1.3972,1.1948 3.5067,1.0194 4.6838,-0.3557 l 11.7393,-13.7552 c 1.1847,-1.3846 1.032,-3.438 -0.3557,-4.6246 l -28.9927,-24.783 c -0.6984,-0.5973 -1.5298,-0.8327 -2.3716,-0.7709 z"
     id="path6147"
     inkscape:connector-curvature="0" /><path
     inkscape:connector-curvature="0"
     id="path6094"
     d="m -986.71602,1714.8082 c -1.83877,0 -3.31264,1.4714 -3.31264,3.2813 l -0.031,18.0624 c 0,1.8222 1.48637,3.3126 3.31254,3.3126 l 38.09366,0.062 c 1.8387,0 3.3126,-1.4592 3.3126,-3.2812 l 0.031,-4.0938 4.9688,0.031 0,-9.875 -4.9688,0 0.031,-4.0937 c 0,-1.9542 -1.66465,-3.2449 -3.3122,-3.3126 l -38.12496,-0.094 z"
     style="fill:#ffff00;stroke:#ffff00;stroke-width:5.69180393;stroke-miterlimit:4;stroke-dasharray:none;display:inline"
     sodipodi:nodetypes="cccccccccccccc" /><path
     id="path6096"
     d="m -1026.1966,1589.9049 c 6.3328,0 11.462,5.1293 11.462,11.4621 0,6.3327 -5.1292,11.462 -11.462,11.462 -6.3328,0 -11.462,-5.1293 -11.462,-11.462 0,-6.3328 5.1292,-11.4621 11.462,-11.4621 z m 51.57913,43.9116 -34.38613,0 0,74.5032 -11.462,0 0,-34.3861 -11.462,0 0,34.3861 -11.462,0 0,-74.5032 -34.3861,0 0,-11.462 103.15823,0 z"
     inkscape:connector-curvature="0"
     style="fill:#ffff00;stroke:#ffff00;stroke-width:5.69180393;stroke-miterlimit:4;stroke-dasharray:none;display:inline"
     sodipodi:nodetypes="sssssccccccccccccc" /><path
     style="fill:#ffff00;stroke:#ffff00;stroke-width:5.69180393;stroke-miterlimit:4;stroke-dasharray:none;display:inline"
     d="m -990.46375,1665.108 -9.81245,0.6562 0.34377,4.9688 -4.09377,0.2812 c -1.8186,0.1229 -3.2014,1.6965 -3.0937,3.5313 l 2.5937,38 c 0.1239,1.8339 1.6938,3.2162 3.5,3.0937 l 18.03115,-1.2187 c 1.8184,-0.1228 3.1536,-1.7097 3.0313,-3.5313 l -2.5626,-38 c -0.124,-1.8337 -1.6813,-3.216 -3.5,-3.0937 l -4.0937,0.2813 -0.3437,-4.9688 z"
     id="path6100"
     inkscape:connector-curvature="0" /><path
     style="fill:#ffff00;stroke:#ffff00;stroke-width:5.69180393;stroke-miterlimit:4;stroke-dasharray:none;display:inline"
     d="m -1050.5751,1689.8892 -3,3.9376 -3.2813,-2.4688 c -1.4502,-1.1036 -3.4981,-0.8274 -4.625,0.625 l -23.0625,30.3125 c -1.1135,1.4625 -0.847,3.5287 0.5938,4.625 l 14.375,10.9375 c 1.4501,1.1036 3.519,0.8276 4.625,-0.625 l 23.0937,-30.3125 c 1.1135,-1.4624 0.8252,-3.5213 -0.625,-4.625 l -3.25,-2.5 3,-3.9375 -7.8437,-5.9688 z"
     id="path6102"
     inkscape:connector-curvature="0" /><path
     style="fill:#ffff00;stroke:#ffff00;stroke-width:5.69180393;stroke-miterlimit:4;stroke-dasharray:none;display:inline"
     d="m -1087.2939,1694.358 c -0.6353,0.044 -1.2709,0.2686 -1.8125,0.6875 l -30.125,23.3125 c -1.4541,1.1245 -1.7401,3.1838 -0.625,4.625 l 2.5,3.25 -3.9063,3.0312 6,7.8126 3.9376,-3.0626 2.5312,3.25 c 1.115,1.4415 3.1605,1.705 4.625,0.5938 l 30.125,-23.3125 c 1.4544,-1.1245 1.7327,-3.1934 0.625,-4.625 l -11.0625,-14.2813 c -0.6969,-0.9007 -1.7537,-1.3548 -2.8125,-1.2812 z"
     id="path6104"
     inkscape:connector-curvature="0" /><path
     style="fill:#ffff00;stroke:#ffff00;stroke-width:5.69180393;stroke-miterlimit:4;stroke-dasharray:none;display:inline"
     d="m -1058.7939,1666.6392 c -0.2191,-0.019 -0.4294,0.01 -0.6562,0.031 l -37.8438,4.2813 c -1.8266,0.208 -3.1435,1.8457 -2.9375,3.6562 l 0.4687,4.0625 -4.9374,0.5625 1.125,9.8125 4.9374,-0.5625 0.4688,4.0625 c 0.206,1.8103 1.8275,3.0975 3.6562,2.9063 l 37.8438,-4.3126 c 1.8266,-0.2078 3.1426,-1.8578 2.9375,-3.6562 l -2.0625,-17.9375 c -0.1803,-1.5842 -1.4663,-2.7735 -3,-2.9063 z"
     id="path6106"
     inkscape:connector-curvature="0" /><path
     style="fill:#ffff00;stroke:none;display:inline"
     d="m -1048.5127,1644.108 c -0.8417,0.062 -1.6576,0.4639 -2.25,1.1562 l -2.6562,3.125 -3.7812,-3.25 -6.4063,7.5 3.7813,3.2188 -2.6563,3.125 c -1.185,1.3847 -1.0113,3.4489 0.375,4.6562 l 28.9375,24.75 c 1.3972,1.1948 3.4793,1.0315 4.6562,-0.3437 l 11.75,-13.7187 c 1.1847,-1.3847 1.0127,-3.4697 -0.375,-4.6563 l -28.9687,-24.75 c -0.6986,-0.5974 -1.5645,-0.8744 -2.4063,-0.8125 z"
     id="path6108"
     inkscape:connector-curvature="0" /><path
     style="fill:#ff0000;display:inline"
     inkscape:connector-curvature="0"
     d="m -1056.8461,1691.3553 3.2635,2.4835 3.0095,-3.9527 7.8396,5.9661 -3.0093,3.9526 3.2635,2.4836 c 1.4502,1.1038 1.7211,3.167 0.6076,4.6294 l -23.0754,30.3072 c -1.1059,1.4527 -3.175,1.7509 -4.6251,0.6474 l -14.3766,-10.9406 c -1.4407,-1.0963 -1.7213,-3.1669 -0.6078,-4.6295 l 23.0753,-30.3072 c 1.1269,-1.4524 3.185,-1.7434 4.6352,-0.6398 z m -15.8429,31.6437 3.9198,2.9831 3.0096,-3.9527 -3.92,-2.983 -3.0094,3.9526 z m 6.0189,-7.9053 3.9199,2.9831 7.5239,-9.8817 -3.92,-2.983 -7.5238,9.8816 z"
     id="path6110" /><path
     style="fill:#ff0000;display:inline"
     id="path6112"
     d="m -1108.8091,1737.2665 -2.5095,-3.2433 -3.9302,3.0394 -6.028,-7.7914 3.9301,-3.0393 -2.5093,-3.2433 c -1.1151,-1.4412 -0.8426,-3.5044 0.6115,-4.6289 l 30.1352,-23.3036 c 1.4442,-1.117 3.5202,-0.8697 4.6353,0.5715 l 11.0542,14.2877 c 1.1077,1.4316 0.8428,3.5045 -0.6116,4.629 l -30.1349,23.3036 c -1.4645,1.1112 -3.5278,0.8601 -4.6428,-0.5814 z m 23.4951,-26.4661 -3.014,-3.8957 -3.9302,3.0394 3.0139,3.8956 3.9303,-3.0393 z m -7.8605,6.0786 -3.014,-3.8957 -9.8258,7.5982 3.0142,3.8956 9.8256,-7.5981 z"
     inkscape:connector-curvature="0" /><path
     style="fill:#ff0000;display:inline"
     inkscape:connector-curvature="0"
     d="m -1098.1831,1692.5434 -0.4641,-4.074 -4.9367,0.5619 -1.1145,-9.7869 4.9369,-0.5621 -0.4642,-4.0739 c -0.206,-1.8105 1.0969,-3.4334 2.9235,-3.6414 l 37.8534,-4.3081 c 1.8146,-0.2065 3.4614,1.0807 3.6674,2.8912 l 2.0436,17.947 c 0.2051,1.7984 -1.0966,3.4337 -2.9232,3.6415 l -37.8535,4.3083 c -1.8287,0.1913 -3.4626,-1.0931 -3.6686,-2.9034 z m 33.8154,-10.4541 -0.5572,-4.8933 -4.9371,0.5617 0.5575,4.8936 4.9368,-0.562 z m -9.8737,1.1238 -0.5573,-4.8934 -12.3424,1.4047 0.5577,4.8934 12.342,-1.4047 z"
     id="path6114" /><path
     style="fill:#ff0000;display:inline"
     inkscape:connector-curvature="0"
     d="m -1062.493,1657.0788 2.6659,-3.1158 -3.7757,-3.2291 6.4046,-7.4852 3.7756,3.2291 2.6661,-3.1158 c 1.1848,-1.3848 3.2608,-1.5375 4.6579,-0.3428 l 28.9507,24.759 c 1.3876,1.1866 1.5675,3.2688 0.3829,4.6535 l -11.7446,13.7261 c -1.177,1.3752 -3.2609,1.5375 -4.6581,0.3427 l -28.9506,-24.7589 c -1.3863,-1.2073 -1.5597,-3.278 -0.3747,-4.6628 z m 30.6976,17.6164 3.2022,-3.7427 -3.7757,-3.2291 -3.2023,3.7427 3.7758,3.2291 z m -7.5516,-6.4582 3.2021,-3.7427 -9.4394,-8.0725 -3.2022,3.7424 9.4395,8.0728 z"
     id="path6117" /><path
     style="fill:#ff0000;display:inline"
     id="path6119"
     d="m -945.27866,1718.2044 -0.017,4.1001 4.9689,0.017 -0.021,9.8504 -4.9685,-0.017 -0.017,4.1002 c 0,1.822 -1.485,3.2842 -3.3236,3.2806 l -38.09776,-0.079 c -1.82617,0 -3.31374,-1.4722 -3.30994,-3.2943 l 0.037,-18.063 c 0,-1.8099 1.48497,-3.2843 3.32364,-3.2807 l 38.09776,0.079 c 1.8385,0.021 3.3136,1.4843 3.3098,3.3067 z m -34.79495,6.4904 -0.017,4.9251 4.96861,0.017 0.017,-4.9251 -4.96871,-0.017 z m 9.93752,0.021 -0.017,4.9247 12.42193,0.025 0.017,-4.9247 -12.42213,-0.025 z"
     inkscape:connector-curvature="0" /><path
     style="fill:#ff0000;display:inline"
     inkscape:connector-curvature="0"
     d="m -1004.0357,1671.0086 4.09187,-0.2765 -0.33507,-4.9564 9.83015,-0.6639 0.335,4.956 4.092,-0.2764 c 1.8186,-0.1223 3.3804,1.2529 3.5045,3.0867 l 2.5686,38.0015 c 0.1224,1.8215 -1.2386,3.4072 -3.057,3.53 l -18.02625,1.2179 c -1.8063,0.1224 -3.3807,-1.2527 -3.5045,-3.0866 l -2.5689,-38.0017 c -0.1077,-1.8348 1.251,-3.4077 3.0696,-3.5306 z m 8.89451,34.2507 4.91514,-0.332 -0.3349,-4.9562 -4.91514,0.3321 0.3349,4.9561 z m -0.67,-9.9123 4.91504,-0.3321 -0.8376,-12.3905 -4.91491,0.3321 0.83747,12.3905 z"
     id="path6121" /><g
     transform="matrix(1.1958732,0,0,1.1958732,1239.621,4457.9813)"
     id="g6123"
     style="display:inline"><path
       inkscape:connector-curvature="0"
       style="fill:#ffff00;stroke:#ffff00;stroke-width:4.7595377;stroke-miterlimit:4;stroke-dasharray:none;display:inline"
       id="path6125"
       d="m -1901.9909,-2326.0026 c 16.6809,0 30.1766,13.509 30.1766,30.169 0,16.6598 -13.4957,30.1688 -30.1766,30.1688 -16.6809,0 -30.1765,-13.509 -30.1765,-30.1688 0,-16.66 13.4956,-30.169 30.1765,-30.169 z"
       sodipodi:nodetypes="sssss" /><path
       id="path6127"
       d="m -1900.3109,-2312.6019 -5.0295,0 0,20.1126 15.9098,9.5702 2.5314,-4.1398 -13.4117,-7.9445 z m -1.6932,-13.4084 c -16.6809,0 -30.1598,13.5089 -30.1598,30.1689 0,16.6599 13.4789,30.1689 30.1598,30.1689 16.6809,0 30.1933,-13.509 30.1933,-30.1689 0,-16.66 -13.5124,-30.1689 -30.1933,-30.1689 z m 0.017,53.6336 c -12.9591,0 -23.4706,-10.5088 -23.4706,-23.4647 0,-12.9558 10.5115,-23.4647 23.4706,-23.4647 12.9591,0 23.4707,10.5089 23.4707,23.4647 0,12.9559 -10.4947,23.4647 -23.4707,23.4647 z"
       inkscape:connector-curvature="0"
       style="fill:#ff0000;display:inline"
       sodipodi:nodetypes="cccccccssssssssss" /></g></g><g
   id="g6154"
   transform="matrix(-0.92240929,0,0,0.92240929,-1351.7972,-1762.0712)"><path
     style="fill:#ff0000"
     d="m -1688.968,2075.3555 -0.1543,-0.076 c -3.9089,-2.4388 -8.76,-2.5231 -13.2105,-1.7701 -5.0862,0.8599 -9.6029,2.7891 -11.4706,3.4543 -3.4687,1.2359 -7.2066,0.4966 -9.646,-0.058 l -0.2954,-0.073 -0.062,0 c -0.6883,-0.1551 -1.54,-0.5704 -2.3107,-0.9901 l -1.4474,-0.7904 0.8461,1.4349 5.5033,9.2265 0.1771,0.3339 0.3645,-0.1208 c 0.5965,-0.2306 3.9026,-1.5488 5.0015,-1.9385 -2e-4,0 0.02,0.017 0.024,0.017 l 0.2304,-0.077 c 0.5289,-0.1779 1.0931,-0.07 2.4031,0.3292 1.2996,0.3959 3.3393,1.104 6.7883,2.1069 l 0.039,0 c 7.9224,1.6094 13.3487,0.3151 16.7945,-1.3878 2.3322,-1.1523 3.6791,-2.427 4.3524,-3.1641 l 0.4798,-0.5234 -0.6598,-0.1942 -6.9687,-2.3392 -0.2791,-0.096 0.2858,-0.1081 c 0,0 2.398,-1.0232 3.9081,-1.8184 l 0.6306,-0.3467 -0.5742,-0.4098 c -0.2226,-0.1685 -0.4767,-0.3806 -0.7416,-0.5636 l 0,-0.038 z"
     id="path6150"
     inkscape:connector-curvature="0" /><path
     inkscape:connector-curvature="0"
     d="m -1691.6568,2083.4613 c -0.367,0.5113 -1.1465,0.582 -1.7414,0.1584 -0.5949,-0.4242 -0.7797,-1.1831 -0.4128,-1.6947 0.3668,-0.5117 1.1463,-0.582 1.7413,-0.1586 0.5948,0.4245 0.7797,1.1832 0.4128,1.6948 z m 2.9006,-8.741 c -4.0892,-2.5583 -9.1532,-2.6097 -13.6882,-1.843 -5.183,0.8766 -9.7755,2.8406 -11.5773,3.482 -3.3894,1.2078 -7.2193,0.3825 -9.6345,-0.1717 -0.6305,-0.1428 -1.663,-0.6443 -2.4871,-1.1078 -0.8242,-0.4634 -1.458,-0.8839 -1.458,-0.8839 l -0.7869,0.7458 6.8348,11.5097 0.2394,0.4048 0.4367,-0.1742 c 0,0 4.7435,-1.8251 5.6568,-2.1379 0.2982,-0.099 0.7181,-0.045 2.0009,0.3453 1.2885,0.3923 3.3542,1.0849 6.8532,2.1012 l 0.023,0 0.026,0 c 8.0492,1.6354 13.6504,0.3122 17.2239,-1.4537 3.5733,-1.7661 5.1581,-4.0095 5.1581,-4.0095 l 0.4195,-0.6103 -0.7016,-0.2317 -6.3764,-2.1245 c 1.1081,-0.4846 2.5293,-1.1315 3.4519,-1.7029 l 0.6379,-0.3933 -0.5635,-0.4972 c -0.54,-0.4733 -1.1027,-0.8902 -1.6867,-1.2557 z m -0.5977,0.9418 c 0.2986,0.1858 0.5747,0.4244 0.8603,0.6405 -1.4792,0.779 -3.877,1.8233 -3.877,1.8233 l -1.3629,0.5688 1.4049,0.4742 6.9654,2.3201 c -0.6446,0.7059 -1.9511,1.9378 -4.2274,3.0626 -3.3597,1.6605 -8.6694,2.9519 -16.5057,1.36 -3.4415,-1.0005 -5.4876,-1.6897 -6.8005,-2.0897 -1.3213,-0.4023 -2.0067,-0.555 -2.6815,-0.3285 l -0.01,0 c -0.9643,0.3307 -4.6293,1.7551 -5.2503,1.9952 l -5.4966,-9.2474 c 0.7833,0.4271 1.6522,0.8519 2.4231,1.0277 l 0.3635,0.088 0.01,0 c 2.4485,0.5574 6.2703,1.3482 9.889,0.059 1.9092,-0.6796 6.3735,-2.5825 11.3933,-3.4315 4.3925,-0.7425 9.1354,-0.6613 12.9037,1.6902 z"
     style="fill:#ffff00;display:inline"
     id="path6152" /></g>

</g><g
   style="display:inline"
   inkscape:label="ICONS_W"
   id="g7363"
   inkscape:groupmode="layer"><path
     d="m 142.4995,98.546458 10.5175,0 0,-15.0144 -10.5175,0 z"
     id="path5613"
     style="fill:#ffff00;stroke:#ffff00;stroke-width:0.66023695"
     inkscape:connector-curvature="0"
     sodipodi:nodetypes="ccccc" /></g><g
   inkscape:groupmode="layer"
   id="g7157"
   inkscape:label="ICONS_S"
   style="display:inline"><path
     style="fill:#ff0000;stroke:none"
     inkscape:connector-curvature="0"
     d="m 142.4995,75.259358 10.5175,-0.013 c 1.4528,0 2.6295,1.1778 2.6295,2.6321 l 0,21.0555 c 0,1.454342 -1.1767,2.632142 -2.6295,2.632142 l -10.5175,0 c -1.4528,0 -2.6295,-1.1778 -2.6295,-2.632142 l 0,-21.0555 c 0,-1.4543 1.1767,-2.6188 2.6295,-2.6188 z m 0,21.0426 10.5175,0 0,-15.7919 -10.5175,0 z"
     id="path5615"
     sodipodi:nodetypes="ccssssssccccccc" /></g><g
   inkscape:groupmode="layer"
   id="layer10"
   inkscape:label="BREAK"
   style="display:inline"><path
   sodipodi:nodetypes="ccccccccccccccccc"
   inkscape:connector-curvature="0"
   id="path5617"
   d="m 168.1519,129.8319 -8.0422,-19.2247 -8.6,-0.7185 -2.1998,-5.6911 -6.4094,2.1068 2.4166,-11.487042 -6.4349,-6.902 -3.1374,-3.2527 7.5925,1.8355 2.5063,-4.9035 -5.3111,-3.201 3.003,-3.1734 -10.1214,-4.6812 4.1003,48.229042 -4.1123,6.3595 3.3207,4.8918 z"
   style="fill:#000000;stroke:none;display:inline" /><path
   style="fill:#ff0000;stroke:none;display:inline"
   inkscape:connector-curvature="0"
   d="m 149.073,105.3018 v 7.3498 h 4.6014 l -5.9162,5.9219 -5.9161,-5.9219 h 4.6015 v -7.3498 h 2.6294 z m 6.5735,11.844 c 0,4.3558 -3.5366,7.8956 -7.8883,7.8956 -4.3516,0 -7.8882,-3.5398 -7.8882,-7.8956 h 2.6295 c 0,2.9082 2.3532,5.2638 5.2587,5.2638 2.9055,0 5.2588,-2.3556 5.2588,-5.2638 h 2.6295 z"
   id="path5626" />

<text
   transform="scale(0.99913196,1.0008688)"
   sodipodi:linespacing="141%"
   id="text6277-4"
   y="142.3044"
   x="18.245964"
   style="font-size:53.44522095px;font-style:normal;font-variant:normal;font-weight:800;font-stretch:normal;text-align:start;line-height:140.99999666%;letter-spacing:0px;word-spacing:0px;writing-mode:lr-tb;text-anchor:start;fill:none;stroke:#ffffff;stroke-width:1;display:inline;font-family:Crickx;-inkscape-font-specification:Crickx Ultra-Bold"
   xml:space="preserve"><tspan
     y="142.3044"
     x="18.245964"
     id="tspan6279-7"
     sodipodi:role="line"
     style="stroke-width:1">W<tspan
   style="font-size:53.44522095px;font-style:normal;font-variant:normal;font-weight:800;font-stretch:normal;text-align:start;line-height:140.99999666%;writing-mode:lr-tb;text-anchor:start;fill:none;stroke:#ffffff;stroke-width:1;font-family:Crickx;-inkscape-font-specification:Crickx Ultra-Bold"
   id="tspan6281-2">A</tspan>STE(<tspan
   id="tspan6283-3"
   style="font-size:53.44522095px;font-style:normal;font-variant:normal;font-weight:800;font-stretch:normal;text-align:start;line-height:140.99999666%;writing-mode:lr-tb;text-anchor:start;fill:none;stroke:#ffffff;stroke-width:1;font-family:Crickx;-inkscape-font-specification:Crickx Ultra-Bold">D</tspan>)!</tspan></text>


</g><g
   inkscape:groupmode="layer"
   id="layer7"
   inkscape:label="XX_REF-STICKER"
   style="display:inline"><path
     d="m 127.5588,254.9576 c 70.25,0 127.4025,-57.1525 127.4025,-127.4025 0,-70.250042 -57.1525,-127.40373909 -127.4025,-127.40373909 -70.25,0 -127.4025,57.15369709 -127.4025,127.40373909 0,70.25 57.1525,127.4025 127.4025,127.4025 z"
     style="fill:none;stroke:#cb2a1d;stroke-width:0.3125;stroke-linecap:butt;stroke-linejoin:miter;stroke-miterlimit:4;stroke-opacity:1;stroke-dasharray:none"
     id="path48"
     inkscape:connector-curvature="0" /><path
     d="m 127.5588,244.3277 c 64.4924,0 116.7725,-52.2812 116.7725,-116.7725 0,-64.492542 -52.28,-116.773742 -116.7725,-116.773742 -64.4925,0 -116.7725,52.2812 -116.7725,116.773742 0,64.4913 52.2799,116.7725 116.7725,116.7725 z"
     style="fill:none;stroke:#41b313;stroke-width:0.3125;stroke-linecap:butt;stroke-linejoin:miter;stroke-miterlimit:4;stroke-opacity:1;stroke-dasharray:none"
     id="path52"
     inkscape:connector-curvature="0" /></g><g
   inkscape:groupmode="layer"
   id="layer5"
   inkscape:label="XX_COVER"
   style="display:inline;opacity:1"><path
     style="fill:#f2f2f2;stroke:none"
     d="m 123.5,-186.5925 c -171.6351,2.1741 -310.0938,142.005558 -310.0938,314.1563 0,173.503 140.6498,314.1563 314.1563,314.1563 173.506,0 314.1563,-140.6533 314.1563,-314.1563 0,-173.506242 -140.6503,-314.1563 -314.1563,-314.1563 -1.3555,0 -2.711,-0.017 -4.0625,0 z m 4.0625,197.374958 c 64.4924,0 116.7813,52.2888 116.7813,116.781342 0,64.4913 -52.2889,116.75 -116.7813,116.75 -64.4926,0 -116.7813,-52.2587 -116.7813,-116.75 0,-64.492542 52.2887,-116.781342 116.7813,-116.781342 z"
     id="path5217"
     inkscape:connector-curvature="0" /></g><g
   inkscape:groupmode="layer"
   id="layer8"
   inkscape:label="TYPO_NEU"
   style="display:inline">














<text
   xml:space="preserve"
   style="font-size:16.99648476px;font-style:normal;font-variant:normal;font-weight:500;font-stretch:normal;text-align:start;line-height:140.99999666%;letter-spacing:0px;word-spacing:0px;writing-mode:lr-tb;text-anchor:start;fill:#ffffff;fill-opacity:1;stroke:none;display:inline;font-family:Whois;-inkscape-font-specification:Whois Medium"
   x="27.032593"
   y="56.256634"
   id="text5187"
   sodipodi:linespacing="141%"><tspan
     sodipodi:role="line"
     x="27.032593"
     y="56.256634"
     id="tspan5189">www.radical-openness.org</tspan></text>


</g>
</svg>