<?xml version="1.0" encoding="UTF-8" standalone="no"?>
<!-- Created with Inkscape (http://www.inkscape.org/) -->

<svg
   xmlns:dc="http://purl.org/dc/elements/1.1/"
   xmlns:cc="http://creativecommons.org/ns#"
   xmlns:rdf="http://www.w3.org/1999/02/22-rdf-syntax-ns#"
   xmlns:svg="http://www.w3.org/2000/svg"
   xmlns="http://www.w3.org/2000/svg"
   xmlns:sodipodi="http://sodipodi.sourceforge.net/DTD/sodipodi-0.dtd"
   xmlns:inkscape="http://www.inkscape.org/namespaces/inkscape"
   id="svg2"
   version="1.1"
   inkscape:version="0.48.3.1 r9886"
   width="191.33875"
   height="191.33875"
   xml:space="preserve"
   sodipodi:docname="160420_STICKER.svg"><metadata
   id="metadata8"><rdf:RDF><cc:Work
       rdf:about=""><dc:format>image/svg+xml</dc:format><dc:type
         rdf:resource="http://purl.org/dc/dcmitype/StillImage" /><dc:title /></cc:Work></rdf:RDF></metadata><defs
   id="defs6"><clipPath
     clipPathUnits="userSpaceOnUse"
     id="clipPath16"><path
       d="m 0,153.071 153.071,0 L 153.071,0 0,0 0,153.071 z"
       id="path18"
       inkscape:connector-curvature="0" /></clipPath><clipPath
     clipPathUnits="userSpaceOnUse"
     id="clipPath24"><path
       d="m 0,153.071 153.071,0 L 153.071,0 0,0 0,153.071 z"
       id="path26"
       inkscape:connector-curvature="0" /></clipPath></defs><sodipodi:namedview
   pagecolor="#ffffff"
   bordercolor="#666666"
   borderopacity="1"
   objecttolerance="10"
   gridtolerance="10"
   guidetolerance="10"
   inkscape:pageopacity="0"
   inkscape:pageshadow="2"
   inkscape:window-width="640"
   inkscape:window-height="480"
   id="namedview4"
   showgrid="false"
   inkscape:zoom="1.1737863"
   inkscape:cx="-7.8397998"
   inkscape:cy="84.20927"
   inkscape:current-layer="layer2"
   units="mm"
   showguides="false"><sodipodi:guide
     position="0,191.33858"
     orientation="0,191.33858"
     id="guide3137" /><sodipodi:guide
     position="191.33858,191.33858"
     orientation="191.33858,0"
     id="guide3139" /><sodipodi:guide
     position="191.33858,3.828125e-06"
     orientation="0,-191.33858"
     id="guide3141" /><sodipodi:guide
     position="0,3.828125e-06"
     orientation="-191.33858,0"
     id="guide3143" /><sodipodi:guide
     position="7.0866976,184.25207"
     orientation="0,177.16535"
     id="guide3145" /><sodipodi:guide
     position="184.25205,184.25207"
     orientation="177.1654,0"
     id="guide3147" /><sodipodi:guide
     position="184.25205,7.0866738"
     orientation="0,-177.16535"
     id="guide3149" /><sodipodi:guide
     position="7.0866976,7.0866738"
     orientation="-177.1654,-7.9936058e-15"
     id="guide3151" /><sodipodi:guide
     position="21.259921,170.07884"
     orientation="0,148.8189"
     id="guide3153" /><sodipodi:guide
     position="170.07882,170.07884"
     orientation="148.81894,0"
     id="guide3155" /><sodipodi:guide
     position="170.07882,21.259904"
     orientation="0,-148.8189"
     id="guide3157" /><sodipodi:guide
     position="21.259921,21.259904"
     orientation="-148.81894,7.1054274e-15"
     id="guide3159" /></sodipodi:namedview><g
   inkscape:groupmode="layer"
   id="layer1"
   inkscape:label="XX_REFERENZ"
   style="display:inline"
   transform="translate(0,-8.7109375e-6)"
   sodipodi:insensitive="true"><path
     style="color:#000000;fill:#ffd5d5;fill-opacity:1;fill-rule:nonzero;stroke:none;stroke-width:1;marker:none;visibility:visible;display:inline;overflow:visible;enable-background:accumulate"
     d="m 184.25205,95.669377 c 0,48.922873 -39.65981,88.582673 -88.582672,88.582673 -48.922866,0 -88.5826804,-39.6598 -88.5826804,-88.582673 0,-48.922848 39.6598144,-88.5826774 88.5826804,-88.5826774 48.922862,0 88.582672,39.6598294 88.582672,88.5826774 z"
     id="path3095"
     inkscape:connector-curvature="0" /><path
     inkscape:connector-curvature="0"
     id="path3128"
     d="m 170.07882,95.669372 c 0,41.095218 -33.31424,74.409448 -74.409445,74.409448 -41.095209,0 -74.409454,-33.31423 -74.409454,-74.409448 0,-41.09519 33.314245,-74.409448 74.409454,-74.409448 41.095205,0 74.409445,33.314258 74.409445,74.409448 z"
     style="color:#000000;fill:#d7f4ee;fill-opacity:1;fill-rule:nonzero;stroke:none;stroke-width:1;marker:none;visibility:visible;display:inline;overflow:visible;enable-background:accumulate" /></g>
<g
   inkscape:groupmode="layer"
   id="layer2"
   inkscape:label="BG"
   style="display:inline"><path
     style="color:#000000;fill:#000000;fill-opacity:1;fill-rule:nonzero;stroke:none;stroke-width:1;marker:none;visibility:visible;display:inline;overflow:visible;enable-background:accumulate"
     d="m -28.34375,-28.34375 0,248.03125 248.03125,0 0,-248.03125 -248.03125,0 z"
     id="path3537"
     inkscape:connector-curvature="0" /><path
     style="color:#000000;fill:#000000;fill-opacity:1;fill-rule:nonzero;stroke:none;stroke-width:1;marker:none;visibility:visible;display:inline;overflow:visible;enable-background:accumulate"
     d="m 0,0 0,191.34375 191.34375,0 L 191.34375,0 0,0 z"
     id="path3514"
     inkscape:connector-curvature="0" /></g><g
   inkscape:groupmode="layer"
   id="layer4"
   inkscape:label="SCENARIO"
   style="display:inline">





<path
   style="fill:#ffff00;stroke:none"
   d="m 105.74005,172.70579 23.997,20.85904 -117.979913,0 -13,-23.48599 55.303205,0.28945 10.662182,-14.36261 28.662182,15.63739 z"
   id="path3444"
   inkscape:connector-curvature="0"
   sodipodi:nodetypes="cccccccc" /><text
   transform="scale(0.99913195,1.0008688)"
   sodipodi:linespacing="141%"
   id="text6277"
   y="103.2765"
   x="18.378849"
   style="font-size:37.66320801px;font-style:normal;font-variant:normal;font-weight:800;font-stretch:normal;text-align:start;line-height:140.99999666%;letter-spacing:0px;word-spacing:0px;writing-mode:lr-tb;text-anchor:start;fill:#ffffff;fill-opacity:1;stroke:none;display:inline;font-family:Crickx;-inkscape-font-specification:Crickx Ultra-Bold"
   xml:space="preserve"><tspan
     y="103.2765"
     x="18.378849"
     id="tspan6279"
     sodipodi:role="line">W<tspan
   style="font-size:37.66320801px;font-style:normal;font-variant:normal;font-weight:800;font-stretch:normal;text-align:start;line-height:140.99999666%;writing-mode:lr-tb;text-anchor:start;fill:#ffffff;font-family:Crickx;-inkscape-font-specification:Crickx Ultra-Bold"
   id="tspan6281">A</tspan>STE(<tspan
   id="tspan6283"
   style="font-size:37.66320801px;font-style:normal;font-variant:normal;font-weight:800;font-stretch:normal;text-align:start;line-height:140.99999666%;writing-mode:lr-tb;text-anchor:start;fill:#ffffff;font-family:Crickx;-inkscape-font-specification:Crickx Ultra-Bold">D</tspan>)!</tspan></text>

<g
   style="display:inline"
   id="g5782"
   transform="matrix(-0.60407641,0.36290937,-0.36290937,-0.60407642,27.600258,1802.2149)"><path
     sodipodi:nodetypes="scccccccscccs"
     inkscape:connector-curvature="0"
     style="fill:#ffff00;stroke:none"
     id="path5441"
     d="m -1285.8899,2029.3202 -0.046,-0.3292 c 0,1.7601 -1.4443,3.1963 -3.1995,3.1918 l 6.3825,0.014 c 0,1.7601 -1.4443,3.1961 -3.1995,3.1917 l -31.9127,-0.083 c -1.7552,0 -3.1875,-1.4482 -3.1831,-3.2082 l 6.3826,0.015 c -1.7552,0 -3.1923,-1.4481 -3.183,-3.2083 l 0.046,-8.6351 c 0,-1.76 1.4443,-3.1963 3.1995,-3.1918 l 26.4078,9.0324 c 0.8776,0 2.546,4.953 2.3054,3.2095 z" /><path
     d="m -1289.0729,2008.1832 c 1.7552,0 3.1875,1.4481 3.183,3.2082 l -0.046,17.5996 c 0,1.76 -1.4443,3.1963 -3.1995,3.1918 l 6.3825,0.014 c 0,1.7601 -1.4443,3.1962 -3.1995,3.1917 l -31.9127,-0.083 c -1.7552,0 -3.1876,-1.4482 -3.1831,-3.2082 l 6.3826,0.014 c -1.7552,0 -3.1876,-1.4481 -3.183,-3.2082 l 0.046,-17.5996 c 0,-1.76 1.4443,-3.1963 3.1995,-3.1918 l 25.5302,0.066 z"
     id="path5459"
     style="fill:none;stroke:#ffff00;stroke-width:2.3968308;stroke-miterlimit:4;stroke-dasharray:none"
     inkscape:connector-curvature="0" /><path
     style="fill:#ff0000;display:inline"
     inkscape:connector-curvature="0"
     d="m -1314.673,2032.1179 c -1.7552,0 -3.1716,-1.4482 -3.1672,-3.2081 l 0.03,-17.5998 c 0,-1.76 1.4444,-3.1962 3.1996,-3.1916 l 25.5302,0.066 c 1.7552,0 3.1876,1.4483 3.183,3.2083 l -0.045,17.5997 c 0,1.7601 -1.4444,3.1963 -3.1996,3.1918 l 6.3826,0.014 c 0,1.7598 -1.4444,3.196 -3.1996,3.1916 l -31.9128,-0.084 c -1.7552,0 -3.1875,-1.4485 -3.1829,-3.2084 l 6.3825,0.015 z m 25.5838,-20.7334 -25.5302,-0.066 -0.046,17.5997 25.5302,0.067 0.046,-17.5997 z m -12.8229,22.3664 c 0.8776,0 1.5975,-0.7157 1.5997,-1.5959 0,-0.8799 -0.7139,-1.6017 -1.5914,-1.6039 -0.8777,0 -1.5976,0.716 -1.5998,1.5959 0,0.88 0.7139,1.6018 1.5915,1.6039 z"
     id="path5461" /></g><path
   inkscape:connector-curvature="0"
   id="path5471"
   d="m 93.841132,119.10585 c 0,6.8859 22.323768,12.46844 49.861588,12.46844 27.53776,0 49.86161,-5.58254 49.86161,-12.46844 0,-6.88584 -22.32385,-12.46788 -49.86161,-12.46788 -27.53782,0 -49.861588,5.58204 -49.861588,12.46788 z"
   style="color:#000000;fill:#ffff00;fill-opacity:1;fill-rule:nonzero;stroke:none;stroke-width:1;marker:none;visibility:visible;display:inline;overflow:visible;enable-background:accumulate" /><path
   d="m 99.095205,107.14288 c -0.873967,-0.39478 -1.262266,-1.42259 -0.867564,-2.29692 l 3.571529,-7.91152 c 0.39471,-0.87434 1.42218,-1.26271 2.29615,-0.86778 l -3.16364,-1.42909 0.71429,-1.58221 18.98212,8.57417 -0.71429,1.58249 -3.16364,-1.42914 c 0.87398,0.39464 1.26213,1.42245 0.86743,2.29678 l -3.57147,7.91161 c -0.39463,0.87439 -1.42216,1.26269 -2.29621,0.86792 l -12.654705,-5.71631 z"
   id="path5475"
   style="fill:#ffff00;stroke:#ffff00;stroke-width:1.6890626;stroke-miterlimit:4;stroke-dasharray:none;display:inline"
   inkscape:connector-curvature="0" /><path
   inkscape:connector-curvature="0"
   style="fill:#ffff00;stroke:#ffff00;stroke-width:1.68899977;stroke-miterlimit:4;stroke-dasharray:none;display:inline"
   id="path5505"
   d="m 101.85548,105.07386 c 1.08743,0.007 1.97142,0.90076 1.96452,1.98657 l -0.069,10.85917 c -0.007,1.0861 -0.90217,1.96895 -1.98945,1.96212 l 3.95396,0.0233 c -0.007,1.08588 -0.90216,1.96888 -1.98951,1.96213 l -19.770068,-0.12326 c -1.087294,-0.009 -1.97128,-0.90091 -1.964508,-1.98672 l 3.954106,0.024 c -1.087439,-0.007 -1.971492,-0.9006 -1.964507,-1.98662 l 0.06905,-10.85919 c 0.0067,-1.08587 0.902225,-1.96873 1.989519,-1.9619 l 15.816018,0.0985 z" /><path
   style="color:#000000;fill:#ffff00;fill-opacity:1;fill-rule:nonzero;stroke:none;stroke-width:3;marker:none;visibility:visible;display:inline;overflow:visible;enable-background:accumulate"
   d="m 106.63831,111.25241 c 0,0.80678 -0.65402,1.4608 -1.4608,1.4608 -0.80678,0 -1.4608,-0.65402 -1.4608,-1.4608 0,-0.80678 0.65402,-1.4608 1.4608,-1.4608 0.80678,0 1.4608,0.65402 1.4608,1.4608 z"
   id="path3540"
   inkscape:connector-curvature="0" /><path
   inkscape:connector-curvature="0"
   d="m 111.82258,100.37501 c 0.87398,0.39478 1.2543,1.41909 0.85966,2.29327 l -3.56362,7.91526 c -0.39464,0.87427 -1.42217,1.26255 -2.29622,0.86778 l -12.654774,-5.71609 c -0.873901,-0.39484 -1.2622,-1.42272 -0.867497,-2.29699 l 3.571453,-7.91166 c 0.39478,-0.87434 1.422245,-1.26242 2.296223,-0.86779 l -3.163642,-1.42893 0.714224,-1.582494 18.982253,8.574314 -0.71442,1.58243 -3.16364,-1.4291 z m -16.940663,3.77773 12.654833,5.71623 3.57154,-7.91153 -12.654776,-5.7163 -3.571597,7.9116 z"
   id="path5477"
   style="fill:#ff0000;display:inline" /><path
   style="fill:#000000;stroke:none;display:inline"
   d="m 102.86687,106.87813 -0.73746,7.4324 -2.470079,-2.34378 -3.663558,0.39104 -1.53781,-3.21431 -2.894859,-0.39012 0.558474,-2.26684 7.145237,-0.21979 z"
   id="path5521"
   inkscape:connector-curvature="0"
   sodipodi:nodetypes="ccccccccc" /><path
   d="m 131.67683,102.86383 c 1.40744,-0.15947 2.68952,0.8618 2.84906,2.26964 l 1.59511,14.07884 c 0.15946,1.40795 -0.86159,2.6903 -2.26895,2.84992 l 5.11793,-0.58012 c 0.15955,1.40772 -0.86151,2.69015 -2.26895,2.84984 l -25.59,2.90113 c -1.40751,0.15948 -2.68951,-0.86178 -2.84907,-2.26972 l 5.11808,-0.58025 c -1.40751,0.15946 -2.68958,-0.86179 -2.84906,-2.26959 l -1.59517,-14.07876 c -0.15956,-1.40801 0.86158,-2.69051 2.26901,-2.84998 l 20.47201,-2.32095 z"
   id="path5479"
   style="fill:#ffff00;stroke:#ffff00;stroke-width:1.98071015;stroke-miterlimit:4;stroke-dasharray:none;display:inline"
   inkscape:connector-curvature="0" /><path
   sodipodi:nodetypes="ccccccccccccc"
   inkscape:connector-curvature="0"
   id="path5487"
   d="m 129.30057,99.7664 -0.18752,6.78257 -4.20527,1.61002 -5.13927,0.45631 -2.1149,3.8749 -6.44596,-9.28853 3.75087,-2.06021 2.18561,-4.7538 5.05912,4.1051 4.00662,1.1474 5.10505,-0.49053 0.27601,-1.23703 z"
   style="fill:#000000;stroke:none;display:inline" /><path
   inkscape:connector-curvature="0"
   id="path5469"
   d="m 135.46191,70.62505 -0.26647,0.212333 -0.41951,0.335576 -0.19739,0.158137 0.11353,0.221985 c 0,0 1.00666,2.031813 2.35886,4.314559 0.62691,1.062137 0.90422,2.563657 1.00689,3.791474 0.0599,0.715628 0.0613,1.256554 0.0542,1.648936 l -6.18859,-3.761798 -0.47376,-0.291252 0,0.552839 0,0.928242 0,0.152995 0.11837,0.08902 c 0,0 4.88046,3.874552 6.13935,4.882135 0.50831,0.406975 0.97566,1.505615 1.25353,2.493185 0.1358,0.482446 0.23023,0.926267 0.29611,1.263616 -0.36735,-0.176879 -0.91555,-0.438054 -1.89516,-0.90323 -1.26283,-0.600197 -2.56479,-1.217453 -2.96604,-1.367758 -0.22333,-0.08468 -0.40069,-0.02321 -0.59217,0.04586 -0.19139,0.06838 -0.40063,0.171736 -0.62675,0.301113 -0.45201,0.259057 -0.97081,0.620782 -1.47066,0.987582 -0.99963,0.733033 -1.90983,1.495663 -1.90983,1.495663 l 0.27138,0.538192 c 0,0 0.67109,-0.167586 1.19427,-0.340662 0.007,0 0.007,0 0.01,0 1.29935,-0.37885 2.16663,0.212188 2.16663,0.212188 l 0.01,0.0089 0.0148,0.0089 6.47978,3.524865 -0.24179,12.686425 -7.12141,3.66271 0.18753,0.57771 8.07382,-1.19955 2.18135,2.48317 0.26165,0.22199 0.19239,-0.28124 1.60391,-2.9621 8.4531,0.56384 0.98215,-0.13827 -0.88842,-0.44418 -7.15017,-4.33063 0,-8.53963 c 0.11544,-0.13227 3.39444,-3.891403 4.20964,-4.788486 0.33643,-0.370683 1.02183,-0.629593 1.62371,-0.760308 0.60183,-0.130305 1.10048,-0.148065 1.10048,-0.148065 l 0.16292,-0.0089 0.0839,-0.133192 4.46137,-6.891604 -0.49359,-0.380122 c 0,0 -2.88655,3.210153 -4.00723,4.17144 -1.05368,0.903653 -2.63104,0.766935 -3.93826,0.854042 l -0.0197,0 -0.0197,0.0089 c -0.42156,0.0839 -0.84411,0.365251 -1.29793,0.720773 -0.45382,0.35559 -0.92584,0.792651 -1.35713,1.224425 -0.16102,0.160882 -0.14496,0.162221 -0.29118,0.315784 0.26236,-0.610349 0.2976,-0.726139 0.76503,-1.747601 0.94649,-2.068951 0.69357,-3.056667 0.44403,-4.472563 -0.0119,-0.06838 0.0134,-0.298939 0.12347,-0.592377 0.10978,-0.293439 0.28625,-0.656223 0.50823,-1.056425 0.44405,-0.800338 1.07024,-1.75049 1.70265,-2.655907 1.26487,-1.810744 2.56132,-3.44587 2.56132,-3.44587 l 0.069,-0.08891 0,-0.108437 0,-0.671373 0,-0.83423 -0.54778,0.631903 -4.85628,5.617858 -0.82901,-6.131239 -0.0395,-0.271516 -0.27139,0 -0.58736,0 -0.32572,0 0.0155,0.325645 c 0,0 0.0642,1.556341 0.148,3.282946 0.0841,1.726604 0.18251,3.602032 0.27145,4.314638 0.15559,1.247395 0.0895,3.00247 0.0839,3.144543 l -2.84771,4.092297 c -0.13031,-0.489696 -0.46441,-1.75754 -0.99202,-3.672717 -0.62058,-2.252949 -1.30174,-4.660867 -1.61873,-5.474726 -0.11788,-0.302886 -0.18363,-0.87651 -0.18751,-1.530346 -0.007,-0.65368 0.0451,-1.395035 0.11346,-2.093182 0.13544,-1.395961 0.34552,-2.606508 0.34552,-2.606508 l 0.0789,-0.473766 -0.46384,0.118388 -0.67122,0.167788 -0.1678,0.03949 -0.0542,0.167787 -0.89335,2.823761 -2.92158,-4.492432 -0.18752,-0.286254 z"
   style="fill:#ff0000;display:inline"
   sodipodi:nodetypes="cccccccccccccccccccsccccccccccccccccccccccccccccccsccccccccccscccccccccccccccccsccccccccccccc" /><path
   inkscape:connector-curvature="0"
   d="m 113.37363,124.38509 c -1.40736,0.15954 -2.67668,-0.86334 -2.83616,-2.2712 l -1.60792,-14.07736 c -0.15956,-1.4078 0.8615,-2.6903 2.26894,-2.84984 l 20.47201,-2.32088 c 1.40745,-0.15961 2.68958,0.86179 2.84906,2.26972 l 1.59517,14.07876 c 0.15956,1.40787 -0.86157,2.6903 -2.26901,2.84992 l 5.11801,-0.58026 c 0.15946,1.40786 -0.86151,2.69035 -2.26903,2.84982 l -25.58994,2.90121 c -1.40751,0.15963 -2.68959,-0.86178 -2.84906,-2.26978 l 5.11793,-0.58011 z m 18.58693,-18.95958 -20.47202,2.32103 1.59511,14.07883 20.47201,-2.32102 -1.5951,-14.07884 z m -8.20589,19.07896 c 0.70379,-0.0796 1.21434,-0.72107 1.13451,-1.42486 -0.0797,-0.704 -0.72071,-1.21462 -1.42449,-1.13486 -0.70373,0.0796 -1.21429,0.721 -1.13452,1.42486 0.0797,0.70401 0.72085,1.2147 1.4245,1.13486 z"
   id="path5481"
   style="fill:#ff0000;display:inline" /><path
   style="color:#000000;fill:#000000;stroke:none;stroke-width:1;marker:none;visibility:visible;display:inline;overflow:visible;enable-background:accumulate"
   d="m 93.846576,119.09495 -1.761769,35.25737 51.906053,-13.71977 29.26736,21.18525 c 10.43273,-11.20219 18.49008,-24.64846 23.3434,-39.52964 l -3.03905,-3.19321 c 0,6.8859 -22.32024,12.48653 -49.85799,12.48653 -27.53783,0 -49.858004,-5.60063 -49.858004,-12.48653 z"
   id="path5483"
   inkscape:connector-curvature="0" /><path
   d="m 105.71544,119.90497 c -0.007,1.08589 -0.90217,1.96889 -1.98953,1.96213 l -19.770057,-0.12326"
   id="path5814"
   style="fill:none;stroke:#ffff00;stroke-width:1.68899977;stroke-miterlimit:4;stroke-dasharray:none;display:inline"
   inkscape:connector-curvature="0"
   sodipodi:nodetypes="ccc" /><path
   id="path5523"
   d="m 85.945603,119.73804 c -1.08744,-0.007 -1.961552,-0.89427 -1.954714,-1.97247 l 0.05925,-10.78209 c 0.0067,-1.0782 0.902237,-1.95478 1.989665,-1.94808 l 15.816166,0.0978 c 1.08735,0.007 1.97135,0.89434 1.96451,1.97262 l -0.069,10.78194 c -0.007,1.0782 -0.90217,1.95491 -1.98959,1.94808 l 3.95411,0.0232 c -0.007,1.07827 -0.90218,1.95479 -1.98954,1.94809 l -19.770188,-0.12219 c -1.08744,-0.007 -1.971414,-0.89456 -1.964587,-1.97276 l 3.95404,0.0226 z m 15.897487,-12.64441 -15.81616,-0.0978 -0.06905,10.78194 15.81622,0.0978 0.069,-10.78194 z"
   inkscape:connector-curvature="0"
   style="fill:#ff0000;stroke:none;display:inline"
   sodipodi:nodetypes="cccccccccccccccccccc" /><path
   style="color:#000000;fill:#ffff00;stroke:none;stroke-width:3.30118442;marker:none;visibility:visible;display:inline;overflow:visible;enable-background:accumulate"
   d="m 93.84121,119.10599 c 0,6.88583 22.32363,12.4683 49.86151,12.4683 27.53782,0 49.86161,-5.58247 49.86161,-12.4683"
   id="path5485"
   inkscape:connector-curvature="0"
   sodipodi:nodetypes="csc" /><path
   d="m 85.72967,97.38002 -2.891054,-12.696079 -1.692353,0.385622 -0.385476,-1.692925 20.307613,-4.627243 0.38548,1.692847 -1.692299,0.385621 2.891139,12.696067 -16.92305,3.85609 z"
   id="path5443"
   style="fill:#000000;stroke:#ffff00;stroke-width:1.6890626;stroke-miterlimit:4;stroke-dasharray:none;display:inline"
   inkscape:connector-curvature="0" /><path
   inkscape:connector-curvature="0"
   d="M 99.756657,80.830759 102.6478,93.5269 85.724813,97.38291 82.833691,84.686837 l -1.692357,0.385543 -0.385473,-1.692702 20.307619,-4.627387 0.38546,1.692914 -1.692283,0.385554 z m -6.7692,1.542461 -3.384566,0.771087 0.192666,0.846491 3.384632,-0.771299 -0.192732,-0.846279 z m 5.655131,1.382274 -13.53841,3.085003 1.927448,8.464093 13.538404,-3.084935 -1.927442,-8.464161 z"
   id="path5447"
   style="fill:#ff0000;display:inline" /><g
   style="display:inline"
   id="g5816"
   transform="matrix(-0.68772897,0,0,0.68772898,-956.49902,-1267.304)"><g
     transform="matrix(-1,0,0,1,-2765.8795,-379)"
     id="g5704"><path
       style="fill:#ffff00;display:inline"
       id="path5603"
       d="m -1255.3271,2299.0885 c -1.1973,-6.06 -6.5414,-10.6313 -12.9509,-10.6313 -5.0888,0 -9.4996,2.8891 -11.7095,7.108 -5.2913,0.5726 -9.4205,5.0557 -9.4205,10.5078 0,5.8397 4.7279,10.5696 10.565,10.5696 h 22.8908 c 4.86,0 8.8043,-3.946 8.8043,-8.8079 0,-4.6506 -3.6186,-8.4205 -8.1792,-8.7462 z"
       inkscape:connector-curvature="0" /><path
       id="path5533"
       d="m -1335.99,2342.0902 c -1.089,-5.519 -5.9491,-9.6822 -11.7782,-9.6822 -4.6279,0 -8.6394,2.631 -10.6492,6.4734 -4.8121,0.5215 -8.5674,4.6046 -8.5674,9.5701 0,5.3182 4.2997,9.626 9.6083,9.626 h 20.8179 c 4.4199,0 8.007,-3.5938 8.007,-8.0218 0,-4.2355 -3.2909,-7.6687 -7.4384,-7.9655 z"
       inkscape:connector-curvature="0"
       style="fill:#ff0000;display:inline" /><path
       id="path5539"
       d="m -1317.4592,2335.2653 c -0.8917,-4.5198 -4.872,-7.9293 -9.6457,-7.9293 -3.7901,0 -7.0753,2.1547 -8.7212,5.3014 -3.9409,0.4271 -7.0163,3.771 -7.0163,7.8374 0,4.3554 3.5213,7.8833 7.8688,7.8833 h 17.0489 c 3.6196,0 6.5573,-2.9432 6.5573,-6.5694 0,-3.4687 -2.6951,-6.2804 -6.0918,-6.5234 z"
       inkscape:connector-curvature="0"
       style="fill:#ffff00;stroke:none" /><path
       style="fill:#ff0000"
       inkscape:connector-curvature="0"
       d="m -1317.4592,2335.2653 c -0.8917,-4.5198 -4.872,-7.9293 -9.6457,-7.9293 -1.9344,0 -3.7376,0.5715 -5.2589,1.5374 l 1.9147,1.9181 c 1.0033,-0.519 2.1377,-0.8277 3.3442,-0.8277 3.9868,0 7.213,3.2321 7.213,7.2262 v 0.657 h 1.9672 c 2.1704,0 3.9343,1.7671 3.9343,3.9417 0,1.4912 -0.8327,2.7722 -2.0524,3.4423 l 1.9016,1.905 c 1.6721,-1.189 2.7738,-3.1335 2.7738,-5.3473 0,-3.4687 -2.6951,-6.2804 -6.0918,-6.5234 z m -21.4488,-6.2542 3.6065,3.6 c -4.1835,0.1774 -7.5409,3.6264 -7.5409,7.8637 0,4.3554 3.5213,7.8833 7.8688,7.8833 h 15.3768 l 2.6229,2.6277 1.6721,-1.6687 -21.9341,-21.9811 -1.6721,1.6751 z m 6.1966,6.2081 10.4917,10.511 h -12.7539 c -2.8983,0 -5.2458,-2.3519 -5.2458,-5.2554 0,-2.9038 2.3475,-5.2556 5.2458,-5.2556 h 2.2622 z"
       id="path5541" /><path
       inkscape:connector-curvature="0"
       d="m -1294.005,2343.852 c -0.8918,-4.5197 -4.872,-7.9291 -9.6457,-7.9291 -3.7901,0 -7.0753,2.1547 -8.7212,5.3014 -3.9409,0.4271 -7.0163,3.7709 -7.0163,7.8373 0,4.3554 3.5213,7.8832 7.8688,7.8832 h 17.0489 c 3.6196,0 6.5572,-2.943 6.5572,-6.5694 0,-3.4686 -2.695,-6.2803 -6.0917,-6.5234 z"
       id="path5543"
       style="fill:#ff0000;display:inline" /></g></g><g
   style="display:inline"
   transform="matrix(0.37143236,0,0,0.37143237,463.51458,-470.18444)"
   id="g6092"><path
     inkscape:connector-curvature="0"
     id="path6094"
     d="m -970.87733,1737.3824 c -1.8387,0 -3.31258,1.4714 -3.31258,3.2813 l -0.031,18.0624 c 0,1.8222 1.48638,3.3126 3.31248,3.3126 l 38.0937,0.062 c 1.8387,0 3.3126,-1.4592 3.3126,-3.2812 l 0.031,-4.0938 4.9688,0.031 0,-9.875 -4.9688,0 0.031,-4.0937 c 0,-1.9542 -1.66465,-3.2449 -3.3122,-3.3126 l -38.125,-0.094 z"
     style="fill:#ffff00;stroke:#ffff00;stroke-width:8.0768404;stroke-miterlimit:4;stroke-dasharray:none;display:inline"
     sodipodi:nodetypes="cccccccccccccc" /><path
     style="fill:#ffff00;stroke:#ffff00;stroke-width:8.0768404;stroke-miterlimit:4;stroke-dasharray:none;display:inline"
     d="m -969.20829,1687.845 -9.83434,-0.019 0.002,4.9807 -4.10341,-5e-4 c -1.82274,0 -3.31032,1.4727 -3.32884,3.3106 l -0.0214,38.0883 c -0.002,1.8382 1.46894,3.325 3.27932,3.3267 l 18.07222,0.022 c 1.82252,0 3.26354,-1.4891 3.26659,-3.3148 l 0.0524,-38.0863 c 0.002,-1.8379 -1.45653,-3.3239 -3.27934,-3.3267 l -4.10335,-4e-4 -0.002,-4.9808 z"
     id="path6100"
     inkscape:connector-curvature="0" /><path
     style="fill:#ff0000;display:inline"
     id="path6119"
     d="m -929.43993,1740.7786 -0.017,4.1001 4.9689,0.017 -0.021,9.8504 -4.9685,-0.017 -0.017,4.1002 c 0,1.822 -1.485,3.2842 -3.3236,3.2806 l -38.0978,-0.079 c -1.8261,0 -3.31368,-1.4722 -3.30988,-3.2943 l 0.037,-18.063 c 0,-1.8099 1.48498,-3.2843 3.32358,-3.2807 l 38.0978,0.079 c 1.8385,0.021 3.3136,1.4843 3.3098,3.3067 z m -34.79495,6.4904 -0.017,4.9251 4.96861,0.017 0.017,-4.9251 -4.96871,-0.017 z m 9.93752,0.021 -0.017,4.9247 12.42193,0.025 0.017,-4.9247 -12.42213,-0.025 z"
     inkscape:connector-curvature="0" /><path
     id="path6096"
     d="m -1026.1966,1587.2126 c 6.3328,0 11.462,5.1293 11.462,11.4621 0,6.3327 -5.1292,11.462 -11.462,11.462 -6.3328,0 -11.462,-5.1293 -11.462,-11.462 0,-6.3328 5.1292,-11.4621 11.462,-11.4621 z m 51.57913,43.9116 -34.38613,0 0,74.5032 -11.462,0 0,-34.3861 -11.462,0 0,34.3861 -11.462,0 0,-74.5032 -34.3861,0 0,-11.462 103.15823,0 z"
     inkscape:connector-curvature="0"
     style="fill:#ffff00;stroke:#ffff00;stroke-width:8.0768404;stroke-miterlimit:4;stroke-dasharray:none;display:inline"
     sodipodi:nodetypes="sssssccccccccccccc" /><path
     style="fill:#ffff00;stroke:#ffff00;stroke-width:8.0768404;stroke-miterlimit:4;stroke-dasharray:none;display:inline"
     d="m -1079.217,1702.4349 c -0.6353,0.044 -1.2709,0.2686 -1.8125,0.6875 l -30.125,23.3125 c -1.4541,1.1245 -1.7401,3.1838 -0.625,4.625 l 2.5,3.25 -3.9063,3.0312 6,7.8126 3.9376,-3.0626 2.5312,3.25 c 1.115,1.4415 3.1605,1.705 4.625,0.5938 l 30.125,-23.3125 c 1.4544,-1.1245 1.7327,-3.1934 0.625,-4.625 l -11.0625,-14.2813 c -0.6969,-0.9007 -1.7537,-1.3548 -2.8125,-1.2812 z"
     id="path6104"
     inkscape:connector-curvature="0" /><path
     style="fill:#ffff00;stroke:#ffff00;stroke-width:8.0768404;stroke-miterlimit:4;stroke-dasharray:none;display:inline"
     d="m -1053.7466,1675.0534 c -0.2191,-0.019 -0.4294,0.01 -0.6562,0.031 l -37.8438,4.2813 c -1.8266,0.208 -3.1435,1.8457 -2.9375,3.6562 l 0.4687,4.0625 -4.9374,0.5625 1.125,9.8125 4.9374,-0.5625 0.4688,4.0625 c 0.206,1.8103 1.8275,3.0975 3.6562,2.9063 l 37.8438,-4.3126 c 1.8266,-0.2078 3.1426,-1.8578 2.9375,-3.6562 l -2.0625,-17.9375 c -0.1803,-1.5842 -1.4663,-2.7735 -3,-2.9063 z"
     id="path6106"
     inkscape:connector-curvature="0" /><path
     style="fill:#ffff00;stroke:#ffff00;stroke-width:8.0768404;stroke-miterlimit:4;stroke-dasharray:none;display:inline"
     d="m -1021.1845,1688.2088 c 0.7768,-0.3298 1.4332,-0.9444 1.7719,-1.7901 l 1.5183,-3.8325 4.6405,1.8703 3.6664,-9.1306 -4.6405,-1.8704 1.5374,-3.7764 c 0.6777,-1.6917 -0.1402,-3.6234 -1.8407,-4.3217 l -35.3573,-14.1841 c -1.7067,-0.6832 -3.6484,0.1601 -4.3218,1.8402 l -6.7027,16.7956 c -0.6777,1.6915 0.1261,3.5873 1.8213,4.2657 l 35.4136,14.1651 c 0.8532,0.3415 1.7161,0.2976 2.4936,-0.031 z"
     id="path6147"
     inkscape:connector-curvature="0" /><g
     transform="matrix(1.1958732,0,0,1.1958732,1245.0056,4468.7505)"
     id="g6123"
     style="display:inline"><path
       inkscape:connector-curvature="0"
       style="fill:#ffff00;stroke:#ffff00;stroke-width:6.75392723;stroke-miterlimit:4;stroke-dasharray:none;display:inline"
       id="path6125"
       d="m -1901.9909,-2326.0026 c 16.6809,0 30.1766,13.509 30.1766,30.169 0,16.6598 -13.4957,30.1688 -30.1766,30.1688 -16.6809,0 -30.1765,-13.509 -30.1765,-30.1688 0,-16.66 13.4956,-30.169 30.1765,-30.169 z"
       sodipodi:nodetypes="sssss" /><path
       style="fill:#ff0000;display:inline"
       d="m 94.53102,169.90625 -2.99977,0 c -0.01708,5.74026 -4.653078,10.375 -10.40625,10.375 -5.745706,0 -10.420437,-4.6347 -10.4375,-10.375 l -2.96875,0 0,26.20228 26.81227,0 z"
       transform="matrix(2.2513091,0,0,2.2513091,-2084.5996,-2678.2792)"
       id="path3463"
       inkscape:connector-curvature="0"
       sodipodi:nodetypes="ccsccccc" /><path
       id="path6127"
       d="m -1900.3109,-2312.6019 -5.0295,0 0,20.1126 15.9098,9.5702 2.5314,-4.1398 -13.4117,-7.9445 z m -1.6932,-13.4084 c -16.6809,0 -30.1598,13.5089 -30.1598,30.1689 0,16.6599 13.4789,30.1689 30.1598,30.1689 16.6809,0 30.1933,-13.509 30.1933,-30.1689 0,-16.66 -13.5124,-30.1689 -30.1933,-30.1689 z m 0.017,53.6336 c -12.9591,0 -23.4706,-10.5088 -23.4706,-23.4647 0,-12.9558 10.5115,-23.4647 23.4706,-23.4647 12.9591,0 23.4707,10.5089 23.4707,23.4647 0,12.9559 -10.4947,23.4647 -23.4707,23.4647 z"
       inkscape:connector-curvature="0"
       style="fill:#ff0000;display:inline"
       sodipodi:nodetypes="cccccccssssssssss" /></g><path
     style="fill:#ff0000;display:inline"
     inkscape:connector-curvature="0"
     d="m -1012.6896,1669.6551 -1.5247,3.8066 4.6125,1.8464 -3.663,9.1449 -4.6124,-1.8463 -1.5248,3.8067 c -0.6776,1.6918 -2.5947,2.5028 -4.3014,1.8198 l -35.3661,-14.1559 c -1.6951,-0.6784 -2.5338,-2.5927 -1.8564,-4.2844 l 6.7172,-16.7696 c 0.6732,-1.6803 2.5948,-2.5028 4.3015,-1.8198 l 35.366,14.1558 c 1.7005,0.6985 2.5294,2.6039 1.8516,4.2958 z m -34.7278,-6.8305 -1.8314,4.5726 4.6124,1.8462 1.8315,-4.5726 -4.6125,-1.8462 z m 9.2249,3.6924 -1.8312,4.5726 11.5311,4.6153 1.8314,-4.5722 -11.5313,-4.6157 z"
     id="path6117" /><path
     style="fill:#ff0000;display:inline"
     inkscape:connector-curvature="0"
     d="m -1093.1358,1700.9576 -0.4641,-4.074 -4.9367,0.5619 -1.1145,-9.7869 4.9369,-0.5621 -0.4642,-4.0739 c -0.206,-1.8105 1.0969,-3.4334 2.9235,-3.6414 l 37.8534,-4.3081 c 1.8146,-0.2065 3.4614,1.0807 3.6674,2.8912 l 2.0436,17.947 c 0.2051,1.7984 -1.0966,3.4337 -2.9232,3.6415 l -37.8535,4.3083 c -1.8287,0.1913 -3.4626,-1.0931 -3.6686,-2.9034 z m 33.8154,-10.4541 -0.5572,-4.8933 -4.9371,0.5617 0.5575,4.8936 4.9368,-0.562 z m -9.8737,1.1238 -0.5573,-4.8934 -12.3424,1.4047 0.5577,4.8934 12.342,-1.4047 z"
     id="path6114" /><path
     style="fill:#ff0000;display:inline"
     id="path6112"
     d="m -1100.7322,1745.3434 -2.5095,-3.2433 -3.9302,3.0394 -6.028,-7.7914 3.9301,-3.0393 -2.5093,-3.2433 c -1.1151,-1.4412 -0.8426,-3.5044 0.6115,-4.6289 l 30.1352,-23.3036 c 1.4442,-1.117 3.5202,-0.8697 4.6353,0.5715 l 11.0542,14.2877 c 1.1077,1.4316 0.8428,3.5045 -0.6116,4.629 l -30.1349,23.3036 c -1.4645,1.1112 -3.5278,0.8601 -4.6428,-0.5814 z m 23.4951,-26.4661 -3.014,-3.8957 -3.9302,3.0394 3.0139,3.8956 3.9303,-3.0393 z m -7.8605,6.0786 -3.014,-3.8957 -9.8258,7.5982 3.0142,3.8956 9.8256,-7.5981 z"
     inkscape:connector-curvature="0" /><path
     sodipodi:nodetypes="cccccccccccccc"
     style="fill:#ffff00;stroke:#ffff00;stroke-width:8.0768404;stroke-miterlimit:4;stroke-dasharray:none;display:inline"
     d="m -967.98395,1781.0338 c 1.52936,1.0208 3.57212,0.6151 4.57685,-0.8903 l 10.05275,-15.0064 c 1.01155,-1.5157 0.60259,-3.5805 -0.9163,-4.5943 l -31.65059,-21.1984 c -1.52928,-1.0208 -3.56531,-0.6253 -4.57681,0.8902 l -2.29831,3.3879 -4.11568,-2.7841 -5.48186,8.2136 4.13288,2.7584 -2.29838,3.3878 c -1.0848,1.6254 -0.4167,3.623 0.91608,4.594 l 31.65882,21.2425 z"
     id="path3446"
     inkscape:connector-curvature="0" /><path
     inkscape:connector-curvature="0"
     d="m -1000.5648,1755.2059 2.29028,-3.4009 -4.12348,-2.7725 5.48566,-8.1816 4.12318,2.7723 2.29024,-3.401 c 1.0115,-1.5154 3.05834,-1.9073 4.58561,-0.8836 l 31.64457,21.2149 c 1.51888,1.0138 1.93895,3.0641 0.9243,4.5776 l -10.05808,15.0035 c -1.00473,1.5054 -3.05837,1.9074 -4.58566,0.8838 l -31.64454,-21.2149 c -1.51748,-1.0381 -1.93208,-3.0741 -0.91728,-4.5878 z m 32.54428,13.9172 2.74821,-4.0871 -4.12335,-2.7724 -2.7482,4.0871 4.12342,2.7725 z m -8.25406,-5.5341 2.74798,-4.0867 -10.31821,-6.9166 -2.74798,4.0867 10.31831,6.9167 z"
     id="path3448"
     style="fill:#ff0000;display:inline" /><path
     style="fill:#ff0000;display:inline"
     inkscape:connector-curvature="0"
     d="m -983.15331,1692.8 4.10119,0.01 0.006,-4.9677 9.85255,0.013 -0.006,4.9672 4.10132,0.01 c 1.82271,0 3.28641,1.4821 3.28432,3.3201 l -0.0466,38.0881 c -0.003,1.8256 -1.46961,3.3141 -3.29215,3.3118 l -18.06734,-0.023 c -1.81043,0 -3.28662,-1.4818 -3.28419,-3.3199 l 0.0462,-38.0884 c 0.0185,-1.8379 1.48202,-3.3138 3.30476,-3.3115 z m 6.52193,34.7805 4.92634,0.01 0.006,-4.9675 -4.92635,-0.01 -0.006,4.9674 z m 0.0121,-9.9349 4.92625,0.01 0.0151,-12.4188 -4.92611,-0.01 -0.0152,12.4188 z"
     id="path6121" /></g><g
   style="display:inline"
   id="g6154"
   transform="matrix(-0.650028,0,0,0.65002801,-947.10453,-1242.2706)"><path
     style="fill:#ff0000"
     d="m -1688.968,2075.3555 -0.1543,-0.076 c -3.9089,-2.4388 -8.76,-2.5231 -13.2105,-1.7701 -5.0862,0.8599 -9.6029,2.7891 -11.4706,3.4543 -3.4687,1.2359 -7.2066,0.4966 -9.646,-0.058 l -0.2954,-0.073 -0.062,0 c -0.6883,-0.1551 -1.54,-0.5704 -2.3107,-0.9901 l -1.4474,-0.7904 0.8461,1.4349 5.5033,9.2265 0.1771,0.3339 0.3645,-0.1208 c 0.5965,-0.2306 3.9026,-1.5488 5.0015,-1.9385 -2e-4,0 0.02,0.017 0.024,0.017 l 0.2304,-0.077 c 0.5289,-0.1779 1.0931,-0.07 2.4031,0.3292 1.2996,0.3959 3.3393,1.104 6.7883,2.1069 l 0.039,0 c 7.9224,1.6094 13.3487,0.3151 16.7945,-1.3878 2.3322,-1.1523 3.6791,-2.427 4.3524,-3.1641 l 0.4798,-0.5234 -0.6598,-0.1942 -6.9687,-2.3392 -0.2791,-0.096 0.2858,-0.1081 c 0,0 2.398,-1.0232 3.9081,-1.8184 l 0.6306,-0.3467 -0.5742,-0.4098 c -0.2226,-0.1685 -0.4767,-0.3806 -0.7416,-0.5636 l 0,-0.038 z"
     id="path6150"
     inkscape:connector-curvature="0" /><path
     inkscape:connector-curvature="0"
     d="m -1691.6568,2083.4613 c -0.367,0.5113 -1.1465,0.582 -1.7414,0.1584 -0.5949,-0.4242 -0.7797,-1.1831 -0.4128,-1.6947 0.3668,-0.5117 1.1463,-0.582 1.7413,-0.1586 0.5948,0.4245 0.7797,1.1832 0.4128,1.6948 z m 2.9006,-8.741 c -4.0892,-2.5583 -9.1532,-2.6097 -13.6882,-1.843 -5.183,0.8766 -9.7755,2.8406 -11.5773,3.482 -3.3894,1.2078 -7.2193,0.3825 -9.6345,-0.1717 -0.6305,-0.1428 -1.663,-0.6443 -2.4871,-1.1078 -0.8242,-0.4634 -1.458,-0.8839 -1.458,-0.8839 l -0.7869,0.7458 6.8348,11.5097 0.2394,0.4048 0.4367,-0.1742 c 0,0 4.7435,-1.8251 5.6568,-2.1379 0.2982,-0.099 0.7181,-0.045 2.0009,0.3453 1.2885,0.3923 3.3542,1.0849 6.8532,2.1012 l 0.023,0 0.026,0 c 8.0492,1.6354 13.6504,0.3122 17.2239,-1.4537 3.5733,-1.7661 5.1581,-4.0095 5.1581,-4.0095 l 0.4195,-0.6103 -0.7016,-0.2317 -6.3764,-2.1245 c 1.1081,-0.4846 2.5293,-1.1315 3.4519,-1.7029 l 0.6379,-0.3933 -0.5635,-0.4972 c -0.54,-0.4733 -1.1027,-0.8902 -1.6867,-1.2557 z m -0.5977,0.9418 c 0.2986,0.1858 0.5747,0.4244 0.8603,0.6405 -1.4792,0.779 -3.877,1.8233 -3.877,1.8233 l -1.3629,0.5688 1.4049,0.4742 6.9654,2.3201 c -0.6446,0.7059 -1.9511,1.9378 -4.2274,3.0626 -3.3597,1.6605 -8.6694,2.9519 -16.5057,1.36 -3.4415,-1.0005 -5.4876,-1.6897 -6.8005,-2.0897 -1.3213,-0.4023 -2.0067,-0.555 -2.6815,-0.3285 l -0.01,0 c -0.9643,0.3307 -4.6293,1.7551 -5.2503,1.9952 l -5.4966,-9.2474 c 0.7833,0.4271 1.6522,0.8519 2.4231,1.0277 l 0.3635,0.088 0.01,0 c 2.4485,0.5574 6.2703,1.3482 9.889,0.059 1.9092,-0.6796 6.3735,-2.5825 11.3933,-3.4315 4.3925,-0.7425 9.1354,-0.6613 12.9037,1.6902 z"
     style="fill:#ffff00;display:inline"
     id="path6152" /></g></g><g
   style="display:inline"
   inkscape:label="ICONS_W"
   id="g7363"
   inkscape:groupmode="layer"><path
     d="m 105.23163,53.234373 7.41177,0 0,-10.580746 -7.41177,0 z"
     id="path5613"
     style="fill:#ffff00;stroke:#ffff00;stroke-width:0.6602369;display:inline"
     inkscape:connector-curvature="0"
     sodipodi:nodetypes="ccccc" /></g><g
   inkscape:groupmode="layer"
   id="g7157"
   inkscape:label="ICONS_S"
   style="display:inline"><path
     style="fill:#ff0000;stroke:none;display:inline"
     inkscape:connector-curvature="0"
     d="m 105.23163,36.823804 7.41177,-0.0092 c 1.02379,0 1.85302,0.830004 1.85302,1.854859 l 0,14.837951 c 0,1.024884 -0.82923,1.854888 -1.85302,1.854888 l -7.41177,0 c -1.02378,0 -1.85301,-0.830004 -1.85301,-1.854888 l 0,-14.837951 c 0,-1.024855 0.82923,-1.845487 1.85301,-1.845487 z m 0,14.828862 7.41177,0 0,-11.128658 -7.41177,0 z"
     id="path5615"
     sodipodi:nodetypes="ccssssssccccccc" /></g><g
   inkscape:groupmode="layer"
   id="layer10"
   inkscape:label="BREAK"
   style="display:inline">





<path
   sodipodi:nodetypes="ccccccccccccccccc"
   inkscape:connector-curvature="0"
   id="path5617"
   d="m 124.01377,90.966162 -5.66739,-13.54777 -6.06047,-0.506342 -1.55022,-4.010556 -4.51674,1.484685 1.70298,-11.095 -4.53471,-11.910952 -2.21095,-2.2922 5.35048,1.293489 1.7662,-3.455529 -3.74276,-2.255767 2.11623,-2.236317 -7.132617,-3.298872 2.889517,44.0344 -2.897974,4.481578 2.340124,3.447285 z"
   style="fill:#000000;stroke:none;display:inline" /><path
   style="fill:#ff0000;stroke:none;display:inline"
   inkscape:connector-curvature="0"
   d="m 109.86405,62.223155 0,15.931226 3.24263,0 -4.16919,4.1732 -4.16912,-4.1732 3.24271,0 0,-15.931226 z m 4.63237,19.803022 c 0,3.069565 -2.49227,5.564087 -5.55893,5.564087 -3.06661,0 -5.55887,-2.494522 -5.55887,-5.564087 l 1.85301,0 c 0,2.049429 1.65833,3.709444 3.70586,3.709444 2.04752,0 3.70591,-1.660015 3.70591,-3.709444 z"
   id="path5626"
   sodipodi:nodetypes="cccccccccsccscc" /><text
   transform="scale(0.99913196,1.0008688)"
   sodipodi:linespacing="141%"
   id="text6277-4"
   y="103.2765"
   x="18.37883"
   style="font-size:37.66320419px;font-style:normal;font-variant:normal;font-weight:800;font-stretch:normal;text-align:start;line-height:140.99999666%;letter-spacing:0px;word-spacing:0px;writing-mode:lr-tb;text-anchor:start;fill:none;stroke:#ffffff;stroke-width:1;display:inline;font-family:Crickx;-inkscape-font-specification:Crickx Ultra-Bold"
   xml:space="preserve"><tspan
     y="103.2765"
     x="18.37883"
     id="tspan6279-7"
     sodipodi:role="line"
     style="stroke-width:1">W<tspan
   style="font-size:37.66320419px;font-style:normal;font-variant:normal;font-weight:800;font-stretch:normal;text-align:start;line-height:140.99999666%;writing-mode:lr-tb;text-anchor:start;fill:none;stroke:#ffffff;stroke-width:1;font-family:Crickx;-inkscape-font-specification:Crickx Ultra-Bold"
   id="tspan6281-2">A</tspan>STE(<tspan
   id="tspan6283-3"
   style="font-size:37.66320419px;font-style:normal;font-variant:normal;font-weight:800;font-stretch:normal;text-align:start;line-height:140.99999666%;writing-mode:lr-tb;text-anchor:start;fill:none;stroke:#ffffff;stroke-width:1;font-family:Crickx;-inkscape-font-specification:Crickx Ultra-Bold">D</tspan>)!</tspan></text>

</g><g
   inkscape:groupmode="layer"
   id="g3866"
   inkscape:label="URL-2"
   style="display:inline">



















<text
   sodipodi:linespacing="141%"
   id="text3870"
   style="font-size:9.86589432px;font-style:normal;font-variant:normal;font-weight:500;font-stretch:normal;text-align:start;line-height:140.99999666%;letter-spacing:0px;word-spacing:0px;writing-mode:lr-tb;text-anchor:start;fill:#ffffff;fill-opacity:1;stroke:none;display:inline;font-family:Whois;-inkscape-font-specification:Whois Medium"
   xml:space="preserve"
   x="29.743576"
   y="73.77655"><tspan
     id="tspan3874"
     style="font-size:9.86589432px">www.radical-openness.org</tspan></text>

</g>



<g
   inkscape:groupmode="layer"
   id="g104"
   inkscape:label="XX_COVER"
   style="display:inline"
   sodipodi:insensitive="true"><path
     style="color:#000000;fill:#f2f2f2;fill-opacity:1;fill-rule:nonzero;stroke:none;stroke-width:1;marker:none;visibility:visible;display:inline;overflow:visible;enable-background:accumulate"
     d="m -28.34375,-28.34375 0,248.03125 248.03125,0 0,-248.03125 -248.03125,0 z m 124,35.4375 c 48.92286,0 88.59375,39.639652 88.59375,88.5625 0,48.92288 -39.67089,88.59375 -88.59375,88.59375 -48.922866,0 -88.5625,-39.67087 -88.5625,-88.59375 0,-48.922848 39.639634,-88.5625 88.5625,-88.5625 z"
     id="path3491"
     inkscape:connector-curvature="0" /><path
     style="color:#000000;fill:#f2f2f2;fill-opacity:1;fill-rule:nonzero;stroke:none;stroke-width:1;marker:none;visibility:visible;display:inline;overflow:visible;enable-background:accumulate"
     d="m 0,0 0,191.34375 191.34375,0 L 191.34375,0 0,0 z m 95.65625,7.09375 c 48.92286,0 88.59375,39.639652 88.59375,88.5625 0,48.92288 -39.67089,88.59375 -88.59375,88.59375 -48.922866,0 -88.5625,-39.67087 -88.5625,-88.59375 0,-48.922848 39.639634,-88.5625 88.5625,-88.5625 z"
     id="rect3162"
     inkscape:connector-curvature="0" /><path
     style="opacity:0.5;color:#000000;fill:none;stroke:#999999;stroke-width:0.99999982;stroke-linecap:butt;stroke-linejoin:miter;stroke-miterlimit:4;stroke-opacity:1;stroke-dasharray:none;stroke-dashoffset:0;marker:none;visibility:visible;display:inline;overflow:visible;enable-background:accumulate"
     d="m 184.74437,95.669375 c 0,49.197535 -39.88247,89.079995 -89.07999,89.079995 -49.197532,0 -89.0800065,-39.88246 -89.0800065,-89.079995 0,-49.197514 39.8824745,-89.0800029 89.0800065,-89.0800029 49.19752,0 89.07999,39.8824889 89.07999,89.0800029 z"
     id="path3095-8"
     inkscape:connector-curvature="0" /><g
     id="g3233"
     transform="translate(30.118128,-62)"><text
   sodipodi:linespacing="125%"
   id="text4591"
   y="52.110233"
   x="56.373688"
   style="font-size:7.57278013px;font-style:normal;font-variant:normal;font-weight:300;font-stretch:normal;text-align:start;line-height:125%;letter-spacing:0px;word-spacing:0px;writing-mode:lr-tb;text-anchor:start;fill:#000000;fill-opacity:1;stroke:none;display:inline;font-family:Source Code Pro;-inkscape-font-specification:Source Code Pro Light"
   xml:space="preserve"><tspan
     y="52.110233"
     x="56.373688"
     id="tspan4593"
     sodipodi:role="line">50mm</tspan></text>


<g
   transform="translate(0,54.848273)"
   id="g4610"
   style="display:inline"><path
     sodipodi:nodetypes="cccccccccc"
     inkscape:connector-curvature="0"
     d="m 151.42129,-7.135415 1.97787,1.977874 -1.97787,1.977874 m -171.740082,0 -1.977875,-1.977874 1.977875,-1.977874 m -1.996444,1.977874 75.539183,0 m 24.654595,0 75.539188,0"
     style="color:#000000;fill:none;stroke:#000000;stroke-width:0.2;stroke-linecap:butt;stroke-linejoin:bevel;stroke-miterlimit:4;stroke-opacity:1;stroke-dasharray:none;stroke-dashoffset:0;marker:none;visibility:visible;display:inline;overflow:visible;enable-background:accumulate"
     id="path4600" /></g><text
   xml:space="preserve"
   style="font-size:7.57278013px;font-style:normal;font-variant:normal;font-weight:300;font-stretch:normal;text-align:start;line-height:125%;letter-spacing:0px;word-spacing:0px;writing-mode:lr-tb;text-anchor:start;fill:#000000;fill-opacity:1;stroke:none;display:inline;font-family:Source Code Pro;-inkscape-font-specification:Source Code Pro Light"
   x="56.373688"
   y="42.110233"
   id="text4615"
   sodipodi:linespacing="125%"><tspan
     sodipodi:role="line"
     id="tspan4617"
     x="56.373688"
     y="42.110233">54mm</tspan></text>


<path
   sodipodi:nodetypes="cccccccccc"
   inkscape:connector-curvature="0"
   d="m 158.63317,37.712858 1.97787,1.977874 -1.97787,1.977874 m -186.163847,0 -1.977875,-1.977874 1.977875,-1.977874 m 106.621104,1.977874 81.539183,0 m -190.156731,0 81.539183,0"
   style="color:#000000;fill:none;stroke:#000000;stroke-width:0.2;stroke-linecap:butt;stroke-linejoin:bevel;stroke-miterlimit:4;stroke-opacity:1;stroke-dasharray:none;stroke-dashoffset:0;marker:none;visibility:visible;display:inline;overflow:visible;enable-background:accumulate"
   id="path4625" /></g></g></svg>